<?xml version="1.0" encoding="utf-8"?>
<svg viewBox="0 0 500 500" xmlns="http://www.w3.org/2000/svg" xmlns:bx="https://boxy-svg.com">
  <defs>
    <linearGradient id="color-1" gradientUnits="userSpaceOnUse" bx:pinned="true">
      <title>Background</title>
      <stop style="stop-color: rgba(101, 119, 134, 0);"/>
    </linearGradient>
    <linearGradient id="color-0" gradientUnits="userSpaceOnUse" bx:pinned="true">
      <title>Shirt</title>
      <stop style="stop-color: rgb(252, 186, 211);"/>
    </linearGradient>
    <linearGradient id="color-2" gradientUnits="userSpaceOnUse" bx:pinned="true">
      <title>Hair</title>
      <stop style="stop-color: rgb(247, 243, 189);"/>
    </linearGradient>
  </defs>
  <rect width="500" height="500" style="fill: url(#color-1);">
    <title>COLOR</title>
  </rect>
  <g id="Master/Character/Bust" stroke="none" stroke-width="1" fill="none" fill-rule="evenodd" transform="matrix(0.421364, 0, 0, 0.421364, 2.871866, -70.756645)" style="">
    <g id="Body" transform="translate(147.000000, 639.000000) scale(1 1)" style="">
      <g id="Body/Sweater" stroke="none" stroke-width="1" fill="none" fill-rule="evenodd">
        <path d="M335.817131,732.114936 C275.632131,730.819936 220.845131,734.455936 162.890131,722.700936 L162.816131,720.748936 C150.385131,720.390936 154.500131,708.773936 156.999131,700.648936 C-76.8948685,690.242936 75.6641315,120.152936 237.749131,81.8219358 C245.689131,80.4679358 254.315131,79.7529358 263.061131,79.6669358 C274.345131,76.2209358 285.465131,75.6099358 297.261131,72.4669358 C298.393131,68.3369358 298.578131,65.9489358 303.582131,67.1719358 C321.543131,50.0199358 353.861131,34.2209358 364.766131,67.6909358 C379.117131,47.7439358 387.347131,24.4219358 393.343131,0.802935797 L394.313131,0.961935797 C396.861131,-5.3180642 401.033131,-13.2640642 406.108131,-14.5750642 C414.018131,-17.1940642 428.934131,-16.5900642 437.534131,-17.6530642 C456.180131,-18.9460642 477.839131,-22.1150642 495.712131,-17.8380642 C540.375131,-6.9040642 521.019131,45.8199358 557.231131,80.1439358 C573.849131,73.2649358 599.896131,75.1509358 615.817131,83.3419358 C626.070131,91.5529358 620.929131,100.809936 619.131131,109.489936 C733.488131,99.1819358 763.915131,231.817936 787.514131,319.254936 C796.982131,348.342936 806.379131,368.062936 822.505131,390.520936 C843.453131,416.773936 855.216131,451.153936 833.754131,478.849936 C864.394131,539.988936 831.131131,597.452936 795.937131,643.606936 C789.045131,650.997936 777.866131,671.562936 767.765131,672.968936 C765.024131,675.473936 760.646131,678.556936 757.557131,680.795936 L761.282131,685.679936 C761.727131,690.189936 761.756131,695.036936 764.840131,699.058936 C767.807131,701.949936 770.979131,704.913936 771.067131,709.229936 C766.339131,714.716936 760.233131,708.587936 755.746131,705.862936 C754.026131,709.242936 754.273131,717.271936 748.762131,716.959936 C612.110131,726.331936 472.159131,732.475936 335.817131,732.114936" id="Skin" fill="#ffdbb4" style=""/>
        <path d="M364.766007,67.6909716 C368.556392,62.4225717 371.91978,56.9187342 374.927788,51.2361705 L369.402283,68.6969535 L370.431808,69.5024997 C404.41497,95.9387446 439.273411,107.843737 475.007131,105.217476 C510.024345,102.643875 539.539839,99.5890827 563.553611,96.0530995 L563.553611,96.0530995 L565.754641,95.7253343 L565.753825,77.5263735 C581.841452,74.0200414 602.416207,76.4475585 615.817007,83.3419716 C626.070007,91.5529716 620.929007,100.809972 619.131007,109.489972 C733.488007,99.1819716 763.915007,231.817972 787.514007,319.254972 C796.982007,348.342972 806.379007,368.062972 822.505007,390.520972 C843.453007,416.773972 855.216007,451.153972 833.754007,478.849972 C864.394007,539.988972 831.131007,597.452972 795.937007,643.606972 C789.045007,650.997972 777.866007,671.562972 767.765007,672.968972 C765.024007,675.473972 760.646007,678.556972 757.557007,680.795972 L761.282007,685.679972 C761.727007,690.189972 761.756007,695.036972 764.840007,699.058972 C767.807007,701.949972 770.979007,704.913972 771.067007,709.229972 C766.339007,714.716972 760.233007,708.587972 755.746007,705.862972 C754.026007,709.242972 754.273007,717.271972 748.762007,716.959972 C612.110007,726.331972 472.159007,732.475972 335.817007,732.114972 C275.632007,730.819972 220.845007,734.455972 162.890007,722.700972 L162.816007,720.748972 C150.385007,720.390972 154.500007,708.773972 156.999007,700.648972 C-76.8949933,690.242972 75.6640067,120.152972 237.749007,81.8219716 C245.689007,80.4679716 254.315007,79.7529716 263.061007,79.6669716 C274.345007,76.2209716 285.465007,75.6099716 297.261007,72.4669716 C298.393007,68.3369716 298.578007,65.9489716 303.582007,67.1719716 C321.543007,50.0199716 353.861007,34.2209716 364.766007,67.6909716 Z M320.416667,460.223474 C304.214358,450.486369 285.371005,448.862216 263.886608,455.351015 L263.886608,455.351015 L247.357166,457.295877 C217.590297,468.995049 196.69029,480.718636 184.657144,492.466636 C166.607424,510.088636 153.872014,560.769659 159.817932,560.769659 C163.544041,560.769659 175.529647,553.836866 195.774751,539.971281 L195.774751,539.971281 L199.752426,537.231431 L198.258701,556.443735 C192.876089,579.430335 192.709423,590.923635 197.758701,590.923635 C202.599763,590.923635 213.009247,584.130587 228.987156,570.544492 L228.987156,570.544492 L231.079725,568.753747 C236.487445,583.533672 244.828345,590.923635 256.102425,590.923635 C267.376504,590.923635 289.806848,565.420417 323.393456,514.41398 L323.393456,514.41398 L372.734131,498.340563 C354.058131,482.666275 336.618977,469.960579 320.416667,460.223474 Z M643.961131,459.188091 L659.005173,527.402567 L696.172781,525.540623 L685.92031,483.132423 L649.810738,460.051502 L643.961131,459.188091 Z" id="Top" style="fill: url(#color-0);"/>
        <path d="M390.673131,0.999635797 C401.539131,15.1476358 383.834131,58.4086358 375.686131,73.4146358 C431.394131,96.6746358 493.561131,106.815636 553.067131,93.6066358 C537.612131,78.8226358 520.535131,31.5796358 533.258131,14.9736358 L533.841294,17.9630495 C538.154963,39.927443 543.431262,62.713288 559.274131,79.5136358 C581.708131,73.5596358 636.250131,74.0936358 627.318131,109.476636 C765.806131,109.801636 766.956131,277.375636 813.129131,370.876636 C835.282131,406.587636 869.583131,443.220636 840.863131,486.130636 C846.507131,499.664636 850.440131,514.014636 851.903131,528.589636 C856.414131,576.149636 827.311131,616.857636 801.072131,653.765636 C791.828131,663.905636 784.095131,680.903636 770.658131,685.240636 C769.278131,686.426636 767.841131,687.551636 766.368131,688.619636 C769.036131,692.505636 766.872131,698.685636 769.997131,702.090636 L771.217097,703.272953 C773.267007,705.283462 776.083041,708.265363 776.645131,710.932636 L776.910554,713.239149 C777.025119,714.142393 777.049645,714.092798 776.984131,713.090636 L776.946283,712.77382 C776.904116,712.339529 776.96649,712.373969 777.132982,712.877984 L777.205131,713.104636 C778.612131,717.138636 775.646131,721.756636 771.596131,722.829636 C759.540131,729.290636 746.723131,710.381636 750.758131,697.728636 C683.906131,726.562636 545.048131,674.414636 477.874131,648.564636 C465.037131,643.409636 452.869131,636.716636 439.887131,631.983636 L438.920427,631.512494 C423.937913,624.135542 409.001237,613.436678 391.429131,617.716636 C317.500131,649.377636 248.755131,702.092636 166.801131,712.488636 C179.621131,736.972636 141.892131,740.252636 149.451131,712.903636 C-73.5708685,683.970636 65.4031315,204.655636 183.874131,112.070636 C221.590131,76.1486358 246.964131,84.3846358 292.790131,74.0146358 C293.843131,70.1546358 297.707131,66.9176358 301.798131,67.4666358 C318.084131,51.9786358 351.809131,36.8896358 365.725131,62.0466358 C374.236131,48.7476358 380.154131,33.9726358 384.292131,18.7756358 C385.941131,12.7406358 386.527131,5.8456358 390.673131,0.999635797 Z M303.366531,719.288936 C291.475531,709.869936 309.542531,695.017936 319.836531,701.005936 C323.015531,704.895936 312.029531,701.014936 313.403531,709.632936 C315.405531,715.358936 309.429531,722.979936 303.366531,719.288936 Z M546.070831,707.595936 C537.609831,691.668936 545.037831,684.571936 557.746831,696.973936 C569.349831,705.726936 553.784831,719.948936 546.070831,707.595936 Z M428.224131,706.108036 C416.292131,699.698036 413.324131,670.454036 432.692131,684.512036 C449.924131,690.639036 445.190131,712.560036 428.224131,706.108036 Z M294.418131,82.4686358 C270.561131,89.0636358 243.944131,86.2216358 222.063131,99.8816358 C168.535811,133.575296 137.752692,191.658744 114.596515,248.700445 L113.897131,250.428636 C66.9091315,366.113636 29.3011315,500.608636 68.8401315,623.530636 C88.8101315,679.451636 137.967131,703.429636 193.917131,684.004636 C334.336131,638.518636 451.681131,529.170636 601.011131,510.544636 C603.116131,493.257636 598.338131,476.219636 592.239131,460.058636 C500.628131,463.873636 412.798131,493.532636 325.010131,517.406636 C319.898131,539.800636 294.353131,565.882636 279.048131,583.256636 C265.221131,601.764636 231.018131,607.337636 226.811131,578.881636 L226.137563,579.644095 C214.856835,592.294932 190.108071,614.217356 182.510131,586.910636 C180.799131,572.588636 189.977131,560.199636 194.491131,547.170636 L194.013608,547.522798 C185.671669,553.75806 151.149111,583.182756 148.747131,563.588636 C148.901131,545.125636 154.746131,526.955636 165.349131,511.832636 C176.002131,497.867636 189.091131,484.722636 203.348131,474.399636 C204.100131,470.019636 205.468131,465.785636 206.493131,461.453636 C204.928131,445.164636 211.351131,429.874636 213.035131,413.924636 C216.919131,398.960636 217.766131,370.943636 228.601131,360.416636 C236.918131,369.275636 228.678131,403.059636 228.252131,415.983636 C225.282131,431.692636 226.567131,447.745636 220.874131,463.021636 C236.932131,454.240636 254.334131,449.784636 271.819131,449.033636 C273.600131,414.734636 322.156131,426.712636 344.645131,429.373636 C378.972131,417.167636 523.096131,421.443636 546.924131,447.101636 C558.819131,445.720636 570.192131,444.633636 582.266131,443.804636 C596.309131,434.872636 635.048131,438.528636 641.020131,456.093636 C656.635131,460.716636 670.201131,468.600636 683.895131,477.606636 C688.134131,407.717636 669.592131,338.872636 674.107131,268.879636 C674.514131,264.812636 676.395131,261.286636 676.317131,257.151636 C676.308131,256.660636 677.023131,256.679636 677.067131,257.151636 C683.812131,277.586636 685.095131,299.399636 688.886131,320.591636 C693.880131,357.552636 702.654131,394.086636 705.564131,431.281636 C706.831131,462.538636 701.753131,495.969636 714.221131,525.601636 C715.997131,529.819636 713.067131,536.689636 708.976131,538.493636 C674.809131,552.843636 635.058131,542.529636 603.856131,525.035636 C537.372131,546.318636 472.332131,571.598636 411.084131,605.348636 C422.871131,608.451636 433.472131,615.351636 444.143131,621.082636 C459.334131,626.340636 474.421131,631.891636 489.597131,637.195636 C564.702131,659.902636 643.301131,690.386636 722.652131,685.763636 C747.047131,681.599636 758.019131,671.148636 772.501131,652.479636 L774.890267,649.379864 C800.763453,615.912147 830.335231,580.472926 834.671131,537.058636 C835.659131,522.967636 834.321131,508.949636 833.505131,494.910636 C830.019131,498.477636 826.278131,501.810636 822.658131,505.260636 C817.634131,510.047636 811.212131,504.011636 813.677131,498.331636 C819.008131,482.191636 828.402131,466.962636 830.027131,449.879636 C830.301131,433.811636 819.769131,419.517636 810.464131,407.303636 C738.060131,318.196636 769.642131,131.091636 626.237131,112.924636 C565.046221,241.602856 356.395346,188.109889 296.221819,85.6347973 L294.418131,82.4686358 L294.418131,82.4686358 Z M133.705831,624.855836 C134.309831,607.315836 162.227831,630.152836 159.649831,639.725836 C158.085831,652.955836 142.040831,646.775836 138.407831,637.842836 C136.152831,633.756836 134.253831,629.510836 133.705831,624.855836 Z M686.501031,606.807136 C690.526031,599.466136 714.499031,620.576136 702.073031,627.509136 C693.659031,631.946136 690.438031,621.551136 688.611031,615.312136 C687.614031,612.701136 685.724031,609.688136 686.501031,606.807136 Z M276.481231,616.436836 C261.382231,607.478836 294.434231,595.413836 295.675231,610.025836 C296.160231,619.943836 282.771231,619.415836 276.481231,616.436836 Z M557.088231,577.847636 C564.672231,567.734636 564.852231,603.554636 560.355231,605.986636 C558.279231,609.263636 553.626231,608.489636 552.387231,604.944636 C549.200231,595.815636 553.998231,586.429636 557.088231,577.847636 Z M198.252131,584.151636 L198.088265,584.759484 C197.246314,588.045884 199.226494,583.710498 198.463131,584.349636 C198.395131,584.277636 198.323131,584.215636 198.252131,584.151636 Z M362.190131,498.486636 C327.643131,459.147636 265.327131,449.385636 218.759131,472.723636 C211.899131,474.733636 205.880131,480.364636 199.704131,484.046636 C201.255131,483.485636 202.826131,483.011636 204.412131,482.608636 C183.956131,500.019636 166.543131,523.865636 163.399131,551.017636 C182.048131,539.482636 198.431131,525.029636 211.354131,506.969636 C215.603131,499.555636 227.807131,504.648636 225.209131,512.808636 C216.824131,535.856636 203.994131,558.100636 198.622131,581.918636 C218.720131,567.369636 233.552131,545.959636 241.891131,522.709636 C245.397131,512.737636 261.003131,516.794636 257.891131,527.119636 C253.773465,540.787136 249.378506,554.40758 245.47189,568.140412 L244.419131,571.888636 C243.109131,576.615636 242.340131,580.943636 247.955131,582.241636 C266.050131,583.408636 290.307131,543.423636 301.090131,529.801636 C306.381131,523.357636 311.060131,509.375636 321.050131,511.412636 C333.486131,503.282636 348.482131,502.329636 362.190131,498.486636 Z M760.518531,561.398236 C762.582938,559.606048 765.113767,558.366623 767.85373,559.280064 L768.119531,559.375236 C776.401531,562.272236 769.981531,573.605236 762.879531,569.618236 C760.466531,567.809236 757.845531,566.288236 754.967531,565.297236 C753.242531,563.521236 759.488531,562.718236 760.518531,561.398236 Z M375.072531,528.315936 C377.510531,516.887936 400.087531,532.426936 392.052531,540.475936 C384.427531,546.306936 375.723531,535.625936 375.072531,528.315936 Z M103.094731,529.910036 C124.289731,516.112036 126.843731,549.525036 95.5037315,539.764036 C92.9257315,535.864036 100.503731,532.041036 103.094731,529.910036 Z M645.623131,461.140636 C657.205131,474.998636 661.777131,493.107636 663.829131,510.693636 C664.296131,514.151636 665.116131,517.970636 664.947131,521.539636 C672.854131,522.700636 680.996131,523.002636 688.734131,521.447636 C686.825131,514.578636 685.644131,507.504636 684.926131,500.371636 C674.480131,484.794636 662.471131,470.169636 645.623131,461.140636 Z M614.724131,505.218636 C614.759131,507.124636 614.696131,509.039636 614.542131,510.963636 C624.784131,512.166636 634.873131,514.736636 644.897131,517.236636 L644.832006,514.192636 C644.809631,513.170386 644.784631,512.146136 644.751131,511.136636 C634.843131,513.807636 622.670131,511.041636 614.724131,505.218636 Z M641.331131,481.707636 C629.890131,477.076636 619.404131,474.180636 607.100131,474.953636 C610.739131,482.777636 613.368131,490.975636 614.329131,499.396636 C619.339131,500.816636 625.016131,501.217636 629.854131,500.967636 C634.762131,500.715636 639.292131,498.356636 643.961131,498.250636 C643.430131,492.698636 642.642131,487.136636 641.331131,481.707636 Z M532.499831,485.615536 C539.737831,482.721536 550.395831,490.698536 542.456831,496.949536 C536.676831,500.875536 528.769831,495.610536 524.077831,492.023536 C521.491831,489.053536 530.238831,486.154536 532.499831,485.615536 Z M389.036131,459.017636 C385.901131,468.659636 365.272131,464.425636 355.821131,469.618636 L356.656882,470.10076 C365.737664,475.392313 375.598102,482.909695 377.287131,492.466636 C389.310131,487.772636 401.431131,483.330636 413.620131,479.129636 C406.397131,471.059636 398.097131,464.413636 389.036131,459.017636 Z M529.149131,449.564636 C474.885131,430.108636 415.743131,430.678636 358.819131,432.490636 L360.316194,432.941404 C384.856611,440.387071 413.591171,451.954776 426.382131,474.844636 C459.913131,463.908636 494.223131,454.853636 529.149131,449.564636 Z M634.796131,464.925636 C626.447131,450.140636 610.192131,443.529636 594.288131,444.640636 L591.782131,445.050636 L591.782131,445.050636 C593.513131,445.657636 595.141131,446.515636 596.604131,447.734636 C599.216131,449.910636 599.172131,454.693636 596.863131,457.084636 C599.792131,461.425636 602.542131,465.952636 604.971131,470.628636 C613.739131,464.511636 624.254131,463.629636 634.796131,464.925636 Z M781.397231,465.250336 C762.402231,476.398336 748.653231,424.200336 772.593231,435.412336 L774.299948,437.241352 C781.23487,444.726976 791.956991,457.379736 781.397231,465.250336 Z M335.981131,440.808636 C329.914131,445.732636 322.850131,449.303636 316.706131,454.176636 C326.807131,456.734636 336.735131,460.129636 346.129131,464.595636 C353.783131,458.032636 362.988131,453.854636 372.734131,450.908636 C361.045131,446.067636 348.516131,442.836636 335.981131,440.808636 Z M87.2436134,441.90856 L87.3329315,441.672136 C90.2739315,433.413136 108.022931,421.163136 116.839931,424.371136 C117.251931,424.351136 117.659931,424.754136 117.635931,425.168136 L117.779884,426.19122 C118.276248,429.822359 118.532274,433.376736 116.135931,436.615136 C111.844931,443.531136 107.747931,452.148136 99.4949315,454.844136 C91.3620815,457.423086 84.3955505,449.710006 87.2436134,441.90856 L87.2436134,441.90856 Z M315.753131,438.464636 L313.042321,438.321344 C300.592347,437.627309 282.665471,436.494346 276.585131,448.912636 C287.085131,448.840636 297.765131,449.991636 308.357131,452.244636 C309.942131,447.471636 312.543131,442.673636 315.753131,438.464636 Z M383.756631,385.706436 C381.861631,382.090436 388.889631,386.054436 390.522631,385.498436 C393.555631,385.684436 396.294631,386.307436 398.010631,389.035436 C400.759631,393.410436 395.418631,398.100436 391.211631,395.834436 C387.151631,393.591436 388.127631,387.740436 383.756631,385.706436 Z M622.283931,365.470036 L622.542895,365.444377 C626.738856,364.976948 644.71689,360.88484 644.670115,365.331036 L644.325974,365.814323 C638.67181,373.871316 631.301171,389.730656 619.797931,384.077036 C612.407931,379.868036 613.890931,367.292036 622.283931,365.470036 Z M497.070931,364.813436 C500.389931,358.696436 507.500931,372.899436 509.615931,375.426436 C512.625931,382.166436 503.941931,387.422436 499.658931,381.246436 C496.999931,376.429436 495.816931,370.221436 497.070931,364.813436 Z M185.663231,350.778236 C190.431231,348.363236 202.489231,348.146236 199.188231,356.297236 C192.756231,364.826236 180.958231,360.698236 173.753231,355.235236 C170.069231,350.996236 183.373231,352.720236 185.663231,350.778236 Z M301.574631,319.135236 C301.142631,313.027236 307.955631,310.843236 312.548631,312.838236 C320.744631,316.399236 327.096631,329.498236 324.502631,337.970236 C322.414631,346.374236 309.694631,348.234236 305.652631,340.434236 C303.328631,333.232236 303.015631,326.356236 301.574631,319.135236 Z M723.746931,330.537036 C733.160931,328.544036 743.031931,322.235036 752.700931,324.012036 C755.714931,325.145036 756.809931,328.573036 754.560931,331.062036 C753.289931,336.803036 718.449931,335.525036 723.746931,330.537036 Z M451.578731,308.623836 C455.584731,301.354836 464.791731,293.642836 473.626731,294.273836 C479.045731,294.093836 481.162731,301.886836 476.388731,304.473836 L476.230255,304.541119 C473.233047,305.736579 450.502691,311.569716 451.578731,308.623836 Z M576.692831,296.907036 C563.134831,294.963036 563.214831,262.354036 571.288831,268.722036 C574.040831,276.719036 581.028831,281.484036 585.024831,288.575036 C587.044831,293.438036 581.209831,298.283036 576.692831,296.907036 Z M165.051831,289.689836 C170.812831,290.571836 200.728831,272.377836 195.246831,286.939836 C191.679831,291.021836 187.163831,291.119836 182.101831,291.496836 L181.963582,291.483489 C179.367867,291.315813 160.497771,293.555936 165.051831,289.689836 Z M371.959631,260.075736 C365.973631,259.381736 344.200631,213.891736 354.849631,216.756736 L356.474759,217.821504 C368.274016,225.610697 381.283631,235.56728 386.548631,248.860736 C388.622631,256.785736 379.366631,265.148736 371.959631,260.075736 Z M505.885331,241.362536 C506.747331,240.971536 507.508331,242.197536 506.642331,242.658536 C502.944331,244.621536 498.928331,248.777536 496.604331,252.284536 C488.646331,262.237536 479.232331,244.649536 491.463331,243.327536 C495.925331,243.648536 501.791331,243.217536 505.885331,241.362536 Z M251.928531,186.297236 C262.970531,183.453236 268.309531,198.013236 259.405531,204.033236 C254.952531,207.851236 213.117531,219.803236 210.612531,215.006236 C215.860531,206.473236 242.082531,189.291236 251.928531,186.297236 Z M666.700931,188.336236 C697.269931,185.834236 698.090931,180.240236 676.499931,205.168236 C663.752931,216.356236 650.835931,193.436236 666.700931,188.336236 Z M523.620131,113.824636 C513.018131,114.724636 502.372131,114.994636 491.743131,114.650636 C493.381131,118.157636 491.961131,123.260636 487.309131,122.552636 C485.121131,136.749636 484.126131,151.174636 481.364131,165.275636 C480.639131,168.572636 479.612131,171.774636 478.630131,174.990636 C498.870131,176.484636 519.412131,175.646636 539.139131,170.638636 C531.811131,152.278636 528.631131,132.847636 523.620131,113.824636 Z M438.112131,107.770636 C438.016131,109.254636 437.595131,110.722636 436.900131,111.962636 C427.744131,127.823636 419.706131,144.373636 410.028131,159.898636 C430.914131,167.635636 452.862131,172.680636 475.007131,174.674636 C471.661131,154.476636 474.630131,133.877636 473.937131,113.509636 C461.892131,112.353636 449.920131,110.429636 438.112131,107.770636 Z M572.232131,105.429636 C561.637131,108.280636 550.857131,110.419636 539.995131,111.949636 C540.038131,113.657636 539.055131,115.251636 537.536131,115.888636 C539.916131,133.619636 544.606131,151.064636 544.674131,169.138636 C567.314131,163.591636 585.212131,148.184636 600.061131,130.808636 L596.686431,128.348769 C587.662057,121.74292 578.555687,114.693636 572.232131,105.429636 Z M363.549131,65.3496358 C350.416131,57.2906358 332.235131,60.7236358 321.599131,71.2186358 C316.886131,75.4216358 312.795131,81.1036358 307.428131,84.4056358 C306.759131,84.8166358 306.073131,85.0966358 305.384131,85.2726358 C309.081131,92.2626358 314.731131,98.9636358 319.507131,104.728636 C345.117131,127.090636 373.947131,145.870636 405.633131,158.226636 C406.930131,139.216636 413.508131,120.754636 421.026131,103.288636 C414.018131,101.176636 407.109131,98.7456358 400.324131,95.9946358 C399.460131,100.565636 395.175131,104.095636 392.465131,107.643636 C386.316131,114.844636 382.218131,123.649636 376.363131,130.975636 C369.841131,137.810636 358.760131,129.093636 363.447131,121.010636 C371.000131,109.982636 380.761131,99.9996358 392.101131,92.4906358 C384.626131,89.1366358 377.498131,85.1896358 370.604131,80.7736358 C370.312131,81.0776358 370.011131,81.3676358 369.706131,81.6476358 C369.245131,78.8016358 365.328131,79.5506358 363.245131,80.0166358 C361.761131,78.7596358 359.747131,80.3426358 358.094131,80.7546358 C357.852131,80.3146358 357.649131,79.8496358 357.505131,79.3616358 C349.016131,87.7466358 342.631131,101.025636 331.678131,106.032636 C327.166131,107.277636 321.934131,102.797636 323.654131,98.0096358 C326.551131,90.6576358 350.055131,75.0546358 357.819131,70.9316358 C356.120131,68.4596358 357.479131,67.2386358 360.233131,67.6056358 C360.706131,67.0136358 361.431131,66.8306358 362.186131,67.3326358 C362.665131,66.6886358 363.114131,66.0226358 363.549131,65.3496358 Z M193.283631,139.207236 C198.606631,139.233236 204.891631,137.014236 209.670631,140.088236 C216.698631,148.132236 199.281631,150.897236 192.455631,141.208236 C191.791631,140.473236 192.227631,139.202236 193.283631,139.207236 Z M586.011131,89.6516358 C587.532131,91.4446358 588.048131,94.0606358 587.493131,96.4106358 C594.153131,106.579636 597.812131,118.091636 601.159131,129.527636 L602.096045,128.364536 C617.269818,109.401457 625.874551,92.2074158 592.526131,90.3346358 C590.358131,90.0276358 588.184131,89.7996358 586.011131,89.6516358 Z M268.227331,116.335236 C240.679331,96.2152358 299.955331,107.207236 282.878331,119.506236 C277.623331,121.414236 272.585331,119.291236 268.227331,116.335236 Z" id="Ink" fill="#000" style=""/>
      </g>
    </g>
    <g id="Head" transform="translate(372.000000, 180.000000) scale(0.9978902953586498 1)" style="">
      <g id="Head/Gray Short" stroke="none" stroke-width="1" fill="none" fill-rule="evenodd">
        <path d="M287.4077,509.471946 C265.2117,509.6 246.3477,503.302 231.9537,492.883 C213.9917,486.478 192.3257,476.599 179.1657,466.228 C174.0327,467.538 167.8907,462.085 163.9627,459.207 C139.5377,440.968 120.3657,414.271 114.6847,387.529 C105.9147,398.599 93.4347,399.059 81.4797,393.557 C56.4197,379.345 57.3567,349.42 66.3787,327.062 C47.4117,284.505 34.2667,172.159 63.2197,126.818 C69.1417,120.034 77.8327,115.976 84.0897,109.019 C89.6577,102.943 94.9537,96.728 101.4317,91.92 C121.1977,76.876 155.2417,68.866 176.5577,65.099 C265.5397,45.861 333.9077,80.439 414.5097,109.606 C409.8707,121.206 403.4537,131.785 396.0997,141.649 C416.1097,149.118 406.9187,165.911 391.3947,174.424 L382.1527,169.932 C396.5597,221.478 429.7157,349.66 415.4097,390.823 C404.0017,455.043 353.9357,509.935 287.4077,509.471946" id="Skin" fill="#ffdbb4"/>
        <path d="M414.180138,110.065812 C409.541138,121.665812 403.124138,132.244812 395.770138,142.108812 C415.780138,149.577812 406.589138,166.370812 391.065138,174.883812 L384.383504,171.634526 C381.459208,152.77851 375.828896,142.936124 367.492567,142.107368 C353.825126,140.748619 323.578556,166.316266 310.407201,166.316266 C297.235845,166.316266 230.32078,137.719149 193.56334,137.719149 C156.8059,137.719149 125.514732,168.079928 113.081399,190.084218 C104.792509,204.753744 110.960581,221.19799 131.585612,239.416956 C119.24947,255.229059 113.081399,266.592647 113.081399,273.507721 C113.081399,280.422794 114.522923,294.715028 117.405971,316.384422 C104.122956,312.025601 93.6827919,309.846191 86.0854789,309.846191 C78.4881659,309.846191 71.8937551,314.053147 66.3022465,322.467058 L66.3022465,322.467058 L63.9514038,322.471608 C46.159461,276.671044 35.0178727,170.926359 62.8901376,127.277812 C68.8121376,120.493812 77.5031376,116.435812 83.7601376,109.478812 C89.3281376,103.402812 94.6241376,97.1878124 101.102138,92.3798124 C120.868138,77.3358124 154.912138,69.3258124 176.228138,65.5588124 C265.210138,46.3208124 333.578138,80.8988124 414.180138,110.065812 Z" id="hair" style="fill: url(#color-2);"/>
        <path d="M300.264824,514.999146 C271.444908,517.957475 237.206802,511.144166 217.993995,487.732675 C217.419467,487.031952 217.167937,486.238551 217.152938,485.472368 C217.13626,484.620382 217.422202,483.797293 217.916337,483.156895 C218.435664,482.483847 219.174997,482.014618 220.022563,481.862398 C220.736183,481.734235 221.549772,481.816691 222.388568,482.287221 L224.15486,483.270733 C237.276321,490.517978 250.903537,496.698407 265.773803,499.343499 C281.084661,502.066522 296.67481,501.761975 311.849305,498.303574 C339.489999,492.005907 361.859818,475.940527 378.325184,454.757114 C396.699419,431.117858 407.732864,401.109793 410.545324,371.100003 C413.953335,334.731308 406.047708,298.584201 397.868463,263.370107 C389.273992,226.369129 379.879811,189.55683 368.967102,153.171812 C368.638196,152.076531 368.549815,151.051323 368.644781,150.107121 C365.426107,148.84613 362.000374,149.196196 358.590917,150.347326 C352.361263,152.450634 346.155262,157.193632 340.979537,161.108796 C339.105014,162.526774 337.3611,163.844794 335.794036,164.917168 C329.376153,169.308738 322.360001,172.468602 314.515734,172.965619 C306.356424,173.481228 298.357344,170.945476 290.947203,167.772079 C287.182629,166.159761 283.478478,164.487414 279.789159,162.821628 C269.284189,158.078466 258.903213,153.382071 247.558851,150.329885 C232.358233,146.239084 216.664318,144.224181 200.921891,144.368516 C172.826348,144.625476 144.644623,151.857285 127.425097,175.619154 C120.449982,185.244775 115.902367,196.307893 119.449013,208.187445 C121.378379,214.649794 125.019524,220.516388 128.993518,225.912105 L130.357003,227.749609 C132.536963,230.71144 134.430425,233.661356 135.001361,236.802033 C135.479644,239.433029 135.106583,242.21642 133.227756,245.267056 C132.045555,247.187472 130.540571,248.909567 129.027294,250.626056 C127.935764,251.864164 126.841105,253.099987 125.899304,254.43071 C124.001338,257.113411 122.320872,260.002803 121.002901,263.016269 C118.422043,268.915099 117.327288,275.260597 117.098312,281.660365 C116.821089,289.381252 117.906731,296.934244 118.983467,304.49805 C119.746944,309.861287 120.508775,315.229905 120.816402,320.66355 C120.870084,321.611732 120.580215,322.318162 120.174147,322.840987 C119.67725,323.480758 118.952174,323.884003 118.127005,323.995712 C117.876495,324.029625 117.617099,324.035024 117.356582,324.011965 C117.484577,324.534651 117.597584,325.059758 117.695677,325.586651 C117.174097,324.916138 116.619195,324.265468 116.033506,323.636513 C115.996111,323.61768 115.959013,323.598164 115.92224,323.577967 C115.318351,323.246281 114.806858,322.74073 114.484467,322.089845 C113.655038,321.319083 112.776878,320.587951 111.855612,319.900601 C107.061582,316.323807 101.463549,314.203568 95.8479618,314.133271 C90.434387,314.065502 85.0075466,315.908855 80.8349243,319.802002 C72.5415317,327.539189 70.1122264,340.16973 70.025537,351.014473 C69.937679,362.084577 72.4996612,375.370161 82.1516545,382.243406 C86.0234276,385.00027 90.7520396,386.656769 95.5156733,386.704701 C99.4646897,386.744338 103.243202,385.347234 106.963587,384.016255 C108.110883,383.605806 109.252727,383.197607 110.391752,382.826752 C111.685932,382.405635 112.865331,382.432405 113.893343,382.740306 C115.052066,383.087357 116.035472,383.804034 116.770164,384.75992 C117.502013,385.712107 117.981704,386.904146 118.130379,388.152481 C118.274321,389.361075 118.108665,390.616075 117.59693,391.747468 C117.468468,392.032464 117.332956,392.309098 117.191918,392.579243 L119.314896,396.06982 C127.443531,409.401176 135.714387,422.489228 146.560113,433.947752 C152.785403,440.524706 159.384065,446.731343 166.622156,452.164333 L167.666108,452.939363 C168.290786,453.397926 168.983664,453.963277 169.722636,454.56779 C171.833761,456.294785 174.364081,458.610918 176.726402,458.702114 C177.427437,458.729405 178.039351,458.641716 178.596007,458.568656 C179.941197,458.392103 181.069754,458.340429 182.178654,458.792796 C183.070592,459.156655 183.996217,459.836109 184.946764,461.239386 C185.589754,462.189157 185.919757,463.380366 185.919757,464.58899 C185.919757,465.803151 185.585789,467.01782 184.991404,467.977867 C183.761816,469.965279 182.274028,471.196069 180.659998,471.895036 C178.860478,472.674329 176.871763,472.793356 174.804602,472.407812 C169.712247,471.458041 164.074825,467.239995 160.487534,464.487244 L159.793634,463.955793 C151.844827,457.892611 144.311502,451.183932 137.689208,443.681164 C126.410996,430.904705 116.28212,415.848689 111.079427,399.397936 C107.412422,401.806783 102.881874,402.950208 98.1451385,403.130298 C91.2440463,403.392677 83.9399101,401.617185 78.5576512,399.064708 C66.6958247,393.43971 59.491158,382.800577 56.1146872,370.565771 C52.1936424,356.357675 53.4680375,340.022904 58.4318986,327.25949 C58.575778,326.888464 58.726086,326.518853 58.8803498,326.143497 C43.5985335,287.426343 38.8996548,244.433632 40.2086015,203.115315 C40.8208856,183.774991 42.1378979,163.483694 46.7006666,144.621363 C48.7457328,136.167178 52.2988856,128.116079 57.9724129,121.460316 C61.2070569,117.6649 65.1759119,114.710147 69.1629555,111.763497 C72.6161975,109.211357 76.0826624,106.66482 78.9995351,103.47826 L80.3787914,101.965186 C80.6777763,101.636117 80.9759685,101.307454 81.2736592,100.979344 C86.3106517,95.4276453 91.2145536,90.0405508 97.3270646,85.4875161 C104.415913,80.2085647 112.238579,76.0766161 120.36696,72.6449726 C137.877894,65.2548707 156.724758,60.8237145 175.368992,57.3955618 C215.705038,49.9804253 257.111231,49.6145336 296.952736,60.0377029 C315.476362,64.8831627 333.453559,71.5156777 351.400075,78.1402659 C353.066365,78.7553425 354.732396,79.3703242 356.398649,79.9837805 C370.345308,85.1189692 384.299425,90.2322507 398.253681,95.3455836 C404.738788,97.7219564 411.223925,100.09834 417.708591,102.477024 C419.115532,102.993312 420.493005,104.105437 421.277506,105.487155 C422.042901,106.835222 422.27098,108.407355 421.652944,109.972849 C417.67406,120.054017 412.653683,129.512067 406.542734,138.344347 C408.666317,139.78884 410.473469,141.709703 411.840453,143.958053 C413.569392,146.801731 414.593626,150.168239 414.663221,153.739662 C414.896133,165.700777 404.01124,173.809073 394.980617,179.673461 C394.138889,180.220613 393.305596,180.543558 392.500438,180.691739 C401.250639,214.148976 409.62704,247.719489 416.744412,281.555976 L417.233941,283.901433 C424.565981,319.313448 429.29653,355.451715 422.362278,391.334034 C416.391844,422.232721 402.521082,452.053306 380.846725,475.071622 C359.605786,497.631041 331.103479,511.833003 300.264824,514.999146 Z M110.495272,311.28776 C106.721581,299.312294 104.721776,286.282453 106.165636,274.143073 C107.074449,266.512354 109.368685,259.166257 113.104197,252.440473 C115.243764,248.588427 117.851354,245.022366 120.69718,241.663675 L121.678846,240.535639 C122.175837,239.959477 122.670183,239.429924 122.82338,238.766118 C122.912408,238.380358 122.821778,237.958487 122.587325,237.45442 C122.067809,236.338039 121.10233,235.262104 120.198494,234.211885 C119.624057,233.544414 119.063002,232.889328 118.591947,232.251975 C110.321236,221.056257 104.15332,207.727369 106.158244,193.529975 C108.114088,179.678315 117.192141,166.766674 126.856573,157.036217 C148.137108,135.610063 181.12966,130.686468 210.032243,131.868267 C226.857112,132.555657 243.654604,135.520901 259.676942,140.700615 C267.577825,143.255415 275.303028,146.366669 282.810225,149.932632 L284.472443,150.730696 C285.369437,151.165279 286.265532,151.604706 287.162239,152.044441 C293.030279,154.922063 298.920529,157.827792 305.290532,159.392298 C317.7305,162.446932 326.169144,156.013295 335.038795,149.52496 C338.078547,147.301317 341.164746,145.046915 344.445108,143.068497 L345.120241,142.669308 C351.038071,139.238766 358.116293,136.930205 364.915916,137.033742 C370.822209,137.123676 376.520654,139.009529 381.160007,143.466116 C382.1121,144.381832 382.660347,145.380833 382.917621,146.375085 C383.430885,147.094693 383.845256,147.952801 384.115145,148.966558 C385.777036,155.202318 387.431476,161.44255 389.080394,167.68468 L390.428698,166.815888 C394.422641,164.221741 398.764985,161.257116 400.725993,156.91713 C401.480708,155.2467 401.373813,152.46377 400.42261,150.417698 C400.090255,149.702791 399.650689,149.067164 399.043177,148.67041 C398.601185,148.381755 398.068421,148.246268 397.449338,148.296131 C395.944092,148.489931 394.56209,148.269767 393.390083,147.774461 C392.038644,147.203324 390.960812,146.263446 390.261458,145.130839 C389.545364,143.971121 389.218989,142.607599 389.394026,141.193532 C389.544525,139.977703 390.06775,138.707988 391.102916,137.514938 C397.916727,129.661265 403.654861,120.997901 408.015743,111.594362 L379.169174,100.921825 C368.883848,97.1183844 358.596773,93.3198176 348.304805,89.5358807 L342.670222,87.4654882 C323.955855,80.6013392 305.1338,73.8931981 285.671765,69.4739581 C246.994127,60.6920694 206.661712,62.7560598 168.091043,71.0224764 L165.761031,71.5259817 C149.575629,75.055235 133.1726,79.3253389 118.316452,86.7477419 C111.024514,90.3907808 104.093101,94.8207334 98.1406049,100.417682 C95.5118869,102.889305 93.1351621,105.595464 90.7576963,108.29795 C87.4258629,112.085275 84.090069,115.862411 80.1286906,119.052777 L76.4514661,121.997251 C70.9810797,126.405102 66.0470122,130.699703 62.9603442,137.535767 C59.7328273,144.682481 58.1923335,152.578029 56.9353671,160.270468 C53.7654597,179.648863 52.5142446,199.337569 52.6335625,218.966353 C52.8353879,251.92454 57.8426199,284.211358 64.168395,316.384422 C69.2436511,309.121098 76.3729934,303.490278 85.5234859,302.289587 C91.4891438,301.507065 97.4035979,302.619207 102.532186,305.257041 C105.49638,306.781642 108.197898,308.815777 110.495272,311.28776 L110.495272,311.28776 Z M100.908191,350.423334 C94.2261408,347.834587 87.2103416,346.986868 80.1408705,348.224739 C79.4002127,348.353738 78.6938582,348.199555 78.1001518,347.85459 C77.4982713,347.504876 77.0239213,346.951713 76.7663785,346.34094 C76.4686764,345.634927 76.4535045,344.870759 76.7162375,344.192009 C76.9441587,343.603193 77.3785316,343.031332 78.1773552,342.649383 C85.832348,338.99646 94.3407546,337.384398 102.785784,338.531399 L103.620401,338.649901 C107.937828,339.290226 114.008993,340.637776 118.561842,343.290329 C122.138795,345.374311 124.756906,348.247113 125.408189,352.000095 C125.747891,353.955595 125.262438,355.99726 124.135166,357.477244 C123.045354,358.908048 121.379373,359.861881 119.222821,359.800591 C115.418918,359.692366 113.166654,358.08482 110.456849,356.002742 C110.128101,355.750148 109.790992,355.491067 109.440555,355.228789 C106.822136,353.269712 103.960926,351.605772 100.908191,350.423334 Z" id="Ink" fill="#000" style=""/>
      </g>
    </g>
    <g id="Face" transform="translate(531.000000, 366.000000) scale(1 1)" fill="#000" style="">
      <g id="Face/Smile" stroke="none" stroke-width="1" fill="none" fill-rule="evenodd">
        <path d="M146.586567,240.926554 C139.864291,238.184203 133.866322,233.609781 129.481228,227.766254 C127.956691,225.734803 127.561405,223.589624 127.881219,221.627583 C128.240828,219.421406 129.546036,217.4219 131.326046,216.080693 C133.111571,214.735331 135.345035,214.071832 137.504329,214.410065 C139.380629,214.703969 141.248396,215.731287 142.726594,217.861908 L143.035427,218.287981 C145.642441,221.814933 149.039621,224.708755 152.91047,226.573991 C156.641339,228.371775 160.813939,229.21087 165.131898,228.722919 C173.355732,227.793938 179.024012,223.346401 185.048774,217.30672 C185.795561,216.544195 186.542826,215.757766 187.293714,214.958678 C187.767915,214.234308 188.425986,213.768756 189.156624,213.524488 C189.967867,213.253272 190.885573,213.268617 191.726122,213.56195 C192.536835,213.844871 193.261572,214.380994 193.747527,215.094538 C194.209389,215.772704 194.47125,216.610486 194.386283,217.574143 C193.834826,223.833283 190.562474,229.419299 185.914235,233.805502 C180.751772,238.67694 173.908551,242.047034 167.465957,243.229031 C160.36811,244.531047 153.135593,243.598228 146.586567,240.926554 L146.586567,240.926554 Z M170.814304,144.367155 C178.365682,148.9572 189.871664,159.660291 181.748119,171.039573 C172.185929,181.073062 158.418535,169.568982 151.634201,164.366134 C145.343449,160.333898 138.275437,170.704507 144.112,175.412823 C193.135736,211.708059 213.030606,145.567387 174.633685,138.970386 C170.406047,138.243425 168.835891,142.947174 170.814304,144.367155 Z M82.9633,102.1464 C83.7976284,91.7901242 99.5703,89.4384 101.1393,99.6864 C102.5443,108.8664 100.8903,117.2994 96.7553,125.5644 C92.8043,133.4604 82.8737826,129.776544 82.1227826,122.586544 C81.1160984,112.948648 82.4443,108.588596 82.9633,102.1464 Z M203.027,97.5615 C205.226,94.6815 208.401,92.7155 212.205,93.8265 C224.09,97.2995 220.587,114.1725 216.413,122.3855 C214.145,126.8455 206.814,127.9765 203.501,124.0495 C198.101,117.6455 195.515,104.8565 202.38,98.5485 C202.566,98.2225 202.773,97.8935 203.027,97.5615 Z M96.5879,56.8305 L98.465271,56.501905 C104.27307,55.49746 111.4944,54.5323 115.6029,59.2015 C117.7819,61.6775 118.5319,66.2795 115.6029,68.6495 C110.4509,72.8195 104.7549,71.2035 98.5809,71.5565 C93.4929,71.8485 88.6029,72.6905 83.7019,74.0915 C72.9499,77.1645 64.1889,82.7745 55.0059,88.9345 C53.8009,89.7425 52.5709,88.2015 53.1459,87.0745 C58.4469,76.6915 68.7199,68.1625 79.0099,62.9635 C84.5019,60.1885 90.5119,57.8865 96.5879,56.8305 Z M192.192876,52.1793876 L193.629806,52.4734684 C209.267042,55.742077 229.583473,62.2713911 236.988459,77.6308459 C237.270623,79.8027272 236.97249,80.2682047 236.730054,80.5723213 L236.649336,80.6735209 C236.449568,80.9332186 236.290169,81.2912104 235.348782,81.5868073 C235.087547,81.5245653 234.823712,81.4586426 234.557082,81.3887687 C231.162766,80.499243 228.477205,79.2737961 225.877298,78.0022488 L223.058339,76.6134493 C219.787784,75.0098309 216.488352,73.4645766 212.991711,72.3238115 C205.52958,69.8898666 197.854137,68.1753043 190.059777,67.259767 C188.37041,67.0615005 186.743655,66.4913394 185.460262,65.5141761 C184.242065,64.5866523 183.311441,63.3024737 182.887128,61.5955207 C182.33722,59.3864508 182.495251,57.7140037 183.680513,55.7210991 C184.571756,54.2244705 185.846982,53.1871113 187.311265,52.5914244 C188.804038,51.9841473 190.503545,51.840982 192.192876,52.1793876 Z" id="Ink" fill="#000"/>
      </g>
    </g>
    <g id="Beard" transform="translate(494.999934, 517.999659) scale(1 1)" fill="#000" style="">
      <g id="Beard/Senior Mustache" stroke="none" stroke-width="1" fill="none" fill-rule="evenodd">
        <path d="M245.365277,32.8226847 C231.338969,30.4572303 216.766641,33.9532014 203.242791,37.6782594 C181.759624,23.5729056 153.92278,37.8103838 138.536995,55.4330191 C133.271305,59.7696855 122.213152,65.5298866 128.039044,73.8036493 C125.830655,79.6522886 125.240063,82.4045268 129.81082,75.5670849 C155.679361,78.5452133 183.43415,72.9192677 209.035253,67.6129782 C217.752312,70.5442237 225.450269,77.3976483 235.032448,75.0503077 C244.092921,76.9767679 253.901005,78.7753656 262.080148,72.9629541 C268.30821,72.7104258 282.164331,83.8941237 281.941466,70.8883866 C280.014697,58.4218027 255.296689,37.6782594 245.365277,32.8226847 Z" id="Background" style="fill: url(#color-2);"/>
        <path d="M255.8834,72.8453 C240.6554,74.5303 225.2124,72.0543 212.4614,63.2123 C211.1304,62.2893 209.8184,62.2993 208.7484,62.8403 C207.4474,62.6963 206.1164,63.2153 205.3444,64.7013 C202.1424,70.8683 191.5294,69.4943 185.6954,69.6203 C166.6124,69.9883 146.8634,68.9353 128.4984,74.7043 C146.0624,40.3703 170.3534,25.5483 207.9404,39.0273 C204.5464,41.7603 221.4824,35.3623 222.9684,35.2403 C248.9744,28.7243 270.4294,50.5363 280.9104,72.1503 C272.9814,70.2633 264.0964,71.9363 255.8834,72.8453 M292.2074,78.6883 C280.7404,52.8593 258.1304,24.4593 226.5934,28.9233 C220.1184,29.8763 213.3074,34.2993 206.7884,33.5013 C187.9134,26.5303 172.3334,22.9883 153.4304,34.2603 C145.4104,34.8593 100.2784,90.7363 121.7254,86.1743 C148.0514,71.0563 193.8254,85.2963 210.1734,71.7743 C242.2684,92.8433 268.3644,69.9563 286.4524,83.1263 C289.5974,86.0113 294.0084,82.4183 292.2074,78.6883" id="Ink" fill="#000" style=""/>
      </g>
    </g>
    <g id="Mask" transform="translate(400.000000, 480.000000) scale(1 1)" fill="#000">
      <g id="Mask/None" stroke="none" stroke-width="1" fill="none" fill-rule="evenodd" fill-opacity="0"/>
    </g>
    <g id="Accessories" transform="translate(419.000000, 421.000000) scale(1 1)" fill="#000">
      <g id="Accessories/Glasses 3" stroke="none" stroke-width="1" fill="none" fill-rule="evenodd">
        <path d="M367.1336,98.3183 C360.4006,107.3633 347.9186,110.2443 336.4056,109.2493 C311.5746,106.8593 303.7596,78.6583 302.9456,56.7393 C319.5966,61.4233 301.5376,28.2493 358.4566,24.6013 C378.5216,22.9293 372.9896,35.0473 381.8546,43.9013 C381.6726,62.4833 378.5796,82.6743 367.1336,98.3183 M248.8626,76.9663 C234.2026,145.6193 153.9246,129.2893 145.4916,67.4033 C153.2786,61.9073 151.2276,48.3363 160.9016,43.4193 C176.2336,33.6233 195.3996,34.0423 212.8106,34.2723 C235.0656,35.8013 241.4076,45.0203 252.8396,55.0783 C252.2896,61.7963 250.7036,69.7583 248.8626,76.9663 M398.9346,13.2313 C398.1116,13.0943 397.2876,12.9653 396.4636,12.8443 C395.8206,12.4793 395.0656,12.1983 394.1876,12.0293 C392.1826,11.5203 390.1916,11.1773 388.2036,10.9923 C359.6716,4.5713 293.6646,13.6883 290.9406,38.0363 C281.8546,41.0693 273.9926,38.3533 263.4616,38.6233 C255.4456,5.1183 116.8626,9.8473 110.1976,30.0473 C110.1726,30.0403 110.1476,30.0343 110.1216,30.0263 C103.7176,28.0443 94.2766,28.5223 86.9466,28.2083 C71.2956,27.8803 55.6266,29.2753 40.3136,32.5763 C11.6386,37.1333 -27.4964,42.4683 -7.5534,78.2763 C-7.5494,78.2823 -7.5464,78.2893 -7.5414,78.2953 L-7.5384,78.2923 C-4.1014,81.8153 1.7316,78.9783 1.9486,74.2093 C-4.7564,57.2453 10.3876,55.2083 22.0396,50.3333 C51.0326,39.9173 80.5506,38.4733 110.5366,41.6953 C112.7926,44.3513 116.2156,46.6673 119.8336,47.8793 C139.8826,51.2073 129.3166,66.0793 141.9896,68.2423 C139.6616,120.0843 202.6026,148.3823 239.0716,114.3033 C253.6326,100.0673 257.1036,78.9783 260.4796,59.9693 C262.2646,59.5683 263.3996,58.5923 264.0626,57.3003 C268.3556,53.0143 271.0526,49.0563 279.5416,47.8793 C288.0306,46.7033 294.5656,49.0643 295.4496,49.7873 C295.6726,50.2363 295.9116,50.6863 296.1896,51.1363 C296.5776,51.8073 297.1056,52.3423 297.7056,52.7633 C289.3226,104.3873 329.3996,137.0353 369.8586,110.2603 C387.4386,93.7233 391.1536,68.4053 391.8876,45.8073 C394.2706,44.3693 395.7796,41.5823 394.9546,38.0783 C393.8176,33.2483 396.4836,29.0663 400.7296,26.9663 C406.2466,24.2393 405.2706,14.2803 398.9346,13.2313" id="Ink" fill="#000"/>
      </g>
    </g>
  </g>
</svg>