<svg viewBox="356.91891891891896 517.3875 441.35135135135124 498.22499999999957" xmlns="http://www.w3.org/2000/svg" overflow="visible" xmlns:xlink="http://www.w3.org/1999/xlink" width="441.35135135135124px" height="498.22499999999957px"><g id="Master/Character/Avatar" stroke="none" stroke-width="1" fill="none" fill-rule="evenodd"><g id="Head" transform="translate(332.000000, 483.000000) scale(0.9978902953586498 1)"><g id="Head/Gray Short" stroke="none" stroke-width="1" fill="none" fill-rule="evenodd"><path d="M287.4077,509.471946 C265.2117,509.6 246.3477,503.302 231.9537,492.883 C213.9917,486.478 192.3257,476.599 179.1657,466.228 C174.0327,467.538 167.8907,462.085 163.9627,459.207 C139.5377,440.968 120.3657,414.271 114.6847,387.529 C105.9147,398.599 93.4347,399.059 81.4797,393.557 C56.4197,379.345 57.3567,349.42 66.3787,327.062 C47.4117,284.505 34.2667,172.159 63.2197,126.818 C69.1417,120.034 77.8327,115.976 84.0897,109.019 C89.6577,102.943 94.9537,96.728 101.4317,91.92 C121.1977,76.876 155.2417,68.866 176.5577,65.099 C265.5397,45.861 333.9077,80.439 414.5097,109.606 C409.8707,121.206 403.4537,131.785 396.0997,141.649 C416.1097,149.118 406.9187,165.911 391.3947,174.424 L382.1527,169.932 C396.5597,221.478 429.7157,349.66 415.4097,390.823 C404.0017,455.043 353.9357,509.935 287.4077,509.471946" id="Skin" fill="#ffdbb4"/><path d="M414.180138,110.065812 C409.541138,121.665812 403.124138,132.244812 395.770138,142.108812 C415.780138,149.577812 406.589138,166.370812 391.065138,174.883812 L384.383504,171.634526 C381.459208,152.77851 375.828896,142.936124 367.492567,142.107368 C353.825126,140.748619 323.578556,166.316266 310.407201,166.316266 C297.235845,166.316266 230.32078,137.719149 193.56334,137.719149 C156.8059,137.719149 125.514732,168.079928 113.081399,190.084218 C104.792509,204.753744 110.960581,221.19799 131.585612,239.416956 C119.24947,255.229059 113.081399,266.592647 113.081399,273.507721 C113.081399,280.422794 114.522923,294.715028 117.405971,316.384422 C104.122956,312.025601 93.6827919,309.846191 86.0854789,309.846191 C78.4881659,309.846191 71.8937551,314.053147 66.3022465,322.467058 L66.3022465,322.467058 L63.9514038,322.471608 C46.159461,276.671044 35.0178727,170.926359 62.8901376,127.277812 C68.8121376,120.493812 77.5031376,116.435812 83.7601376,109.478812 C89.3281376,103.402812 94.6241376,97.1878124 101.102138,92.3798124 C120.868138,77.3358124 154.912138,69.3258124 176.228138,65.5588124 C265.210138,46.3208124 333.578138,80.8988124 414.180138,110.065812 Z" id="hair" fill="#ECDCBF"/><path d="M300.264824,514.999146 C271.444908,517.957475 237.206802,511.144166 217.993995,487.732675 C217.419467,487.031952 217.167937,486.238551 217.152938,485.472368 C217.13626,484.620382 217.422202,483.797293 217.916337,483.156895 C218.435664,482.483847 219.174997,482.014618 220.022563,481.862398 C220.736183,481.734235 221.549772,481.816691 222.388568,482.287221 L224.15486,483.270733 C237.276321,490.517978 250.903537,496.698407 265.773803,499.343499 C281.084661,502.066522 296.67481,501.761975 311.849305,498.303574 C339.489999,492.005907 361.859818,475.940527 378.325184,454.757114 C396.699419,431.117858 407.732864,401.109793 410.545324,371.100003 C413.953335,334.731308 406.047708,298.584201 397.868463,263.370107 C389.273992,226.369129 379.879811,189.55683 368.967102,153.171812 C368.638196,152.076531 368.549815,151.051323 368.644781,150.107121 C365.426107,148.84613 362.000374,149.196196 358.590917,150.347326 C352.361263,152.450634 346.155262,157.193632 340.979537,161.108796 C339.105014,162.526774 337.3611,163.844794 335.794036,164.917168 C329.376153,169.308738 322.360001,172.468602 314.515734,172.965619 C306.356424,173.481228 298.357344,170.945476 290.947203,167.772079 C287.182629,166.159761 283.478478,164.487414 279.789159,162.821628 C269.284189,158.078466 258.903213,153.382071 247.558851,150.329885 C232.358233,146.239084 216.664318,144.224181 200.921891,144.368516 C172.826348,144.625476 144.644623,151.857285 127.425097,175.619154 C120.449982,185.244775 115.902367,196.307893 119.449013,208.187445 C121.378379,214.649794 125.019524,220.516388 128.993518,225.912105 L130.357003,227.749609 C132.536963,230.71144 134.430425,233.661356 135.001361,236.802033 C135.479644,239.433029 135.106583,242.21642 133.227756,245.267056 C132.045555,247.187472 130.540571,248.909567 129.027294,250.626056 C127.935764,251.864164 126.841105,253.099987 125.899304,254.43071 C124.001338,257.113411 122.320872,260.002803 121.002901,263.016269 C118.422043,268.915099 117.327288,275.260597 117.098312,281.660365 C116.821089,289.381252 117.906731,296.934244 118.983467,304.49805 C119.746944,309.861287 120.508775,315.229905 120.816402,320.66355 C120.870084,321.611732 120.580215,322.318162 120.174147,322.840987 C119.67725,323.480758 118.952174,323.884003 118.127005,323.995712 C117.876495,324.029625 117.617099,324.035024 117.356582,324.011965 C117.484577,324.534651 117.597584,325.059758 117.695677,325.586651 C117.174097,324.916138 116.619195,324.265468 116.033506,323.636513 C115.996111,323.61768 115.959013,323.598164 115.92224,323.577967 C115.318351,323.246281 114.806858,322.74073 114.484467,322.089845 C113.655038,321.319083 112.776878,320.587951 111.855612,319.900601 C107.061582,316.323807 101.463549,314.203568 95.8479618,314.133271 C90.434387,314.065502 85.0075466,315.908855 80.8349243,319.802002 C72.5415317,327.539189 70.1122264,340.16973 70.025537,351.014473 C69.937679,362.084577 72.4996612,375.370161 82.1516545,382.243406 C86.0234276,385.00027 90.7520396,386.656769 95.5156733,386.704701 C99.4646897,386.744338 103.243202,385.347234 106.963587,384.016255 C108.110883,383.605806 109.252727,383.197607 110.391752,382.826752 C111.685932,382.405635 112.865331,382.432405 113.893343,382.740306 C115.052066,383.087357 116.035472,383.804034 116.770164,384.75992 C117.502013,385.712107 117.981704,386.904146 118.130379,388.152481 C118.274321,389.361075 118.108665,390.616075 117.59693,391.747468 C117.468468,392.032464 117.332956,392.309098 117.191918,392.579243 L119.314896,396.06982 C127.443531,409.401176 135.714387,422.489228 146.560113,433.947752 C152.785403,440.524706 159.384065,446.731343 166.622156,452.164333 L167.666108,452.939363 C168.290786,453.397926 168.983664,453.963277 169.722636,454.56779 C171.833761,456.294785 174.364081,458.610918 176.726402,458.702114 C177.427437,458.729405 178.039351,458.641716 178.596007,458.568656 C179.941197,458.392103 181.069754,458.340429 182.178654,458.792796 C183.070592,459.156655 183.996217,459.836109 184.946764,461.239386 C185.589754,462.189157 185.919757,463.380366 185.919757,464.58899 C185.919757,465.803151 185.585789,467.01782 184.991404,467.977867 C183.761816,469.965279 182.274028,471.196069 180.659998,471.895036 C178.860478,472.674329 176.871763,472.793356 174.804602,472.407812 C169.712247,471.458041 164.074825,467.239995 160.487534,464.487244 L159.793634,463.955793 C151.844827,457.892611 144.311502,451.183932 137.689208,443.681164 C126.410996,430.904705 116.28212,415.848689 111.079427,399.397936 C107.412422,401.806783 102.881874,402.950208 98.1451385,403.130298 C91.2440463,403.392677 83.9399101,401.617185 78.5576512,399.064708 C66.6958247,393.43971 59.491158,382.800577 56.1146872,370.565771 C52.1936424,356.357675 53.4680375,340.022904 58.4318986,327.25949 C58.575778,326.888464 58.726086,326.518853 58.8803498,326.143497 C43.5985335,287.426343 38.8996548,244.433632 40.2086015,203.115315 C40.8208856,183.774991 42.1378979,163.483694 46.7006666,144.621363 C48.7457328,136.167178 52.2988856,128.116079 57.9724129,121.460316 C61.2070569,117.6649 65.1759119,114.710147 69.1629555,111.763497 C72.6161975,109.211357 76.0826624,106.66482 78.9995351,103.47826 L80.3787914,101.965186 C80.6777763,101.636117 80.9759685,101.307454 81.2736592,100.979344 C86.3106517,95.4276453 91.2145536,90.0405508 97.3270646,85.4875161 C104.415913,80.2085647 112.238579,76.0766161 120.36696,72.6449726 C137.877894,65.2548707 156.724758,60.8237145 175.368992,57.3955618 C215.705038,49.9804253 257.111231,49.6145336 296.952736,60.0377029 C315.476362,64.8831627 333.453559,71.5156777 351.400075,78.1402659 C353.066365,78.7553425 354.732396,79.3703242 356.398649,79.9837805 C370.345308,85.1189692 384.299425,90.2322507 398.253681,95.3455836 C404.738788,97.7219564 411.223925,100.09834 417.708591,102.477024 C419.115532,102.993312 420.493005,104.105437 421.277506,105.487155 C422.042901,106.835222 422.27098,108.407355 421.652944,109.972849 C417.67406,120.054017 412.653683,129.512067 406.542734,138.344347 C408.666317,139.78884 410.473469,141.709703 411.840453,143.958053 C413.569392,146.801731 414.593626,150.168239 414.663221,153.739662 C414.896133,165.700777 404.01124,173.809073 394.980617,179.673461 C394.138889,180.220613 393.305596,180.543558 392.500438,180.691739 C401.250639,214.148976 409.62704,247.719489 416.744412,281.555976 L417.233941,283.901433 C424.565981,319.313448 429.29653,355.451715 422.362278,391.334034 C416.391844,422.232721 402.521082,452.053306 380.846725,475.071622 C359.605786,497.631041 331.103479,511.833003 300.264824,514.999146 Z M110.495272,311.28776 C106.721581,299.312294 104.721776,286.282453 106.165636,274.143073 C107.074449,266.512354 109.368685,259.166257 113.104197,252.440473 C115.243764,248.588427 117.851354,245.022366 120.69718,241.663675 L121.678846,240.535639 C122.175837,239.959477 122.670183,239.429924 122.82338,238.766118 C122.912408,238.380358 122.821778,237.958487 122.587325,237.45442 C122.067809,236.338039 121.10233,235.262104 120.198494,234.211885 C119.624057,233.544414 119.063002,232.889328 118.591947,232.251975 C110.321236,221.056257 104.15332,207.727369 106.158244,193.529975 C108.114088,179.678315 117.192141,166.766674 126.856573,157.036217 C148.137108,135.610063 181.12966,130.686468 210.032243,131.868267 C226.857112,132.555657 243.654604,135.520901 259.676942,140.700615 C267.577825,143.255415 275.303028,146.366669 282.810225,149.932632 L284.472443,150.730696 C285.369437,151.165279 286.265532,151.604706 287.162239,152.044441 C293.030279,154.922063 298.920529,157.827792 305.290532,159.392298 C317.7305,162.446932 326.169144,156.013295 335.038795,149.52496 C338.078547,147.301317 341.164746,145.046915 344.445108,143.068497 L345.120241,142.669308 C351.038071,139.238766 358.116293,136.930205 364.915916,137.033742 C370.822209,137.123676 376.520654,139.009529 381.160007,143.466116 C382.1121,144.381832 382.660347,145.380833 382.917621,146.375085 C383.430885,147.094693 383.845256,147.952801 384.115145,148.966558 C385.777036,155.202318 387.431476,161.44255 389.080394,167.68468 L390.428698,166.815888 C394.422641,164.221741 398.764985,161.257116 400.725993,156.91713 C401.480708,155.2467 401.373813,152.46377 400.42261,150.417698 C400.090255,149.702791 399.650689,149.067164 399.043177,148.67041 C398.601185,148.381755 398.068421,148.246268 397.449338,148.296131 C395.944092,148.489931 394.56209,148.269767 393.390083,147.774461 C392.038644,147.203324 390.960812,146.263446 390.261458,145.130839 C389.545364,143.971121 389.218989,142.607599 389.394026,141.193532 C389.544525,139.977703 390.06775,138.707988 391.102916,137.514938 C397.916727,129.661265 403.654861,120.997901 408.015743,111.594362 L379.169174,100.921825 C368.883848,97.1183844 358.596773,93.3198176 348.304805,89.5358807 L342.670222,87.4654882 C323.955855,80.6013392 305.1338,73.8931981 285.671765,69.4739581 C246.994127,60.6920694 206.661712,62.7560598 168.091043,71.0224764 L165.761031,71.5259817 C149.575629,75.055235 133.1726,79.3253389 118.316452,86.7477419 C111.024514,90.3907808 104.093101,94.8207334 98.1406049,100.417682 C95.5118869,102.889305 93.1351621,105.595464 90.7576963,108.29795 C87.4258629,112.085275 84.090069,115.862411 80.1286906,119.052777 L76.4514661,121.997251 C70.9810797,126.405102 66.0470122,130.699703 62.9603442,137.535767 C59.7328273,144.682481 58.1923335,152.578029 56.9353671,160.270468 C53.7654597,179.648863 52.5142446,199.337569 52.6335625,218.966353 C52.8353879,251.92454 57.8426199,284.211358 64.168395,316.384422 C69.2436511,309.121098 76.3729934,303.490278 85.5234859,302.289587 C91.4891438,301.507065 97.4035979,302.619207 102.532186,305.257041 C105.49638,306.781642 108.197898,308.815777 110.495272,311.28776 L110.495272,311.28776 Z M100.908191,350.423334 C94.2261408,347.834587 87.2103416,346.986868 80.1408705,348.224739 C79.4002127,348.353738 78.6938582,348.199555 78.1001518,347.85459 C77.4982713,347.504876 77.0239213,346.951713 76.7663785,346.34094 C76.4686764,345.634927 76.4535045,344.870759 76.7162375,344.192009 C76.9441587,343.603193 77.3785316,343.031332 78.1773552,342.649383 C85.832348,338.99646 94.3407546,337.384398 102.785784,338.531399 L103.620401,338.649901 C107.937828,339.290226 114.008993,340.637776 118.561842,343.290329 C122.138795,345.374311 124.756906,348.247113 125.408189,352.000095 C125.747891,353.955595 125.262438,355.99726 124.135166,357.477244 C123.045354,358.908048 121.379373,359.861881 119.222821,359.800591 C115.418918,359.692366 113.166654,358.08482 110.456849,356.002742 C110.128101,355.750148 109.790992,355.491067 109.440555,355.228789 C106.822136,353.269712 103.960926,351.605772 100.908191,350.423334 Z" id="Ink" fill="#000"/></g></g><g id="Face" transform="translate(491.000000, 669.000000) scale(1 1)" fill="#000"><g id="Face/Smile Big" stroke="none" stroke-width="1" fill="none" fill-rule="evenodd"><path d="M79.1996019,197.798966 C90.1214942,191.222404 130.944848,196.042976 163.01327,197.798966 C188.478595,199.193385 206.667356,196.429949 212.488767,200.348155 C225.641067,209.200546 219.252652,252.006116 196.589222,257.86012 C173.925792,263.714125 89.9129827,271.890526 75.4275085,257.86012 C60.9420343,243.829714 59.6047058,209.597931 79.1996019,197.798966 Z" id="teeth" fill="#FFF"/><path d="M93.3467129,186.476493 C110.488788,184.396013 127.104995,189.644043 143.862898,192.289481 C152.710839,193.685435 161.569756,194.727668 170.523469,195.115267 C172.32459,195.193982 174.126708,195.239817 175.928826,195.276684 C176.096465,193.690417 176.984552,192.233683 178.908408,191.360838 C182.851913,189.573299 186.008114,188.767213 190.337788,188.93959 C194.301251,189.096024 198.278683,189.503551 202.181276,190.217969 C209.268011,191.517272 216.386677,194.465615 221.570511,199.588099 C233.567668,211.441255 231.741602,230.480436 222.47157,243.39077 C203.319435,270.068282 168.364112,271.306425 138.426282,270.958393 L135.66356,270.922255 C108.404278,270.532663 69.4042864,274.596972 57.019963,243.583075 C52.465773,232.178299 53.0984103,218.959081 58.6743992,208.020619 C65.3250733,194.973778 79.3249167,188.178341 93.3467129,186.476493 Z M178.495298,230.894938 L178.250824,230.904902 C165.682896,231.389151 153.116964,231.72992 140.542051,231.952117 C140.918241,235.181444 141.302413,238.411767 141.741468,241.63412 C142.085726,244.169954 142.454931,246.702799 142.839103,249.232654 C143.001753,250.303783 143.598468,251.966772 143.429831,253.027936 L143.368962,253.44742 L143.368962,253.44742 C144.014571,253.739364 144.600309,254.209664 145.03637,254.892197 C145.188043,255.128344 145.297807,255.366483 145.407571,255.603626 C155.170541,255.680348 165.676909,255.491033 175.629471,253.716447 L175.649428,253.500229 L175.649428,253.500229 C175.830039,252.228824 176.358899,251.372918 177.061386,250.786039 C177.76088,246.731694 177.697017,242.411311 177.967435,238.38885 C178.136071,235.889883 178.318678,233.392909 178.495298,230.894938 Z M130.93774,232.123497 C121.87903,232.277607 112.816379,232.396289 103.759597,232.285698 L99.6481393,232.22214 L99.6481393,232.22214 C100.516269,236.880303 101.461234,241.522523 102.246542,246.211574 C103.065777,251.098909 98.7640436,254.205679 95.0410632,254.080133 C95.4591626,254.148884 95.8762641,254.219628 96.2943635,254.278416 C107.926308,255.92347 120.004291,255.487047 131.808863,255.474094 C131.173731,251.767293 131.431054,247.584788 131.336033,244.49078 L131.317921,244.011527 C131.13731,240.046857 131.010583,236.085177 130.93774,232.123497 Z M69.4062821,231.268587 C69.720605,233.690832 70.3322874,236.061264 71.2473164,238.268286 C75.1139873,247.592582 83.9788918,251.943854 93.3586871,253.776231 C91.7311928,253.214262 90.4389764,251.864142 90.1126792,249.551502 C89.299431,243.801286 89.0070608,237.955417 88.9851081,232.116522 C82.448189,232.055742 75.8673645,231.916246 69.4062821,231.268587 Z M212.584867,229.277783 C207.930891,230.375814 202.522541,229.872633 197.956377,230.079884 C193.678592,230.274182 189.398811,230.443569 185.121025,230.616943 C185.322591,233.537386 185.519168,236.456834 185.732708,239.375285 C186.008114,243.147649 186.034059,247.134239 186.756502,250.890661 C195.365957,247.952282 203.08034,243.240314 208.867873,235.705549 C210.309767,233.828335 211.600986,231.625298 212.584867,229.277783 Z M91.3799494,201.775194 C83.6326376,203.609563 76.3004317,207.484557 72.3599198,214.573932 C70.020958,218.780726 68.9921741,223.766703 69.1897485,228.679944 C75.7376439,227.917699 82.3982965,227.628744 89.0270178,227.389608 C89.0489705,226.195923 89.0771321,225.003566 89.1129808,223.813719 L89.2151053,220.764114 C89.3957906,214.947692 89.4865796,207.643706 91.3799494,201.775194 Z M131.479572,202.48463 L128.069104,202.101567 C118.596243,201.022247 109.128468,199.889225 99.6551242,200.538664 C98.2840775,200.633321 96.892076,200.782781 95.4970809,200.987043 C97.1714741,207.029203 97.0307772,214.125552 97.7302705,220.106932 C98.000688,222.419573 98.3419529,224.713282 98.7201382,226.998024 L100.363598,226.921301 L100.363598,226.921301 C110.528702,226.370293 120.703784,226.031517 130.876871,225.627976 C130.876122,223.71788 130.8866,221.806663 130.917143,219.894746 L130.954703,217.982611 C131.070454,213.099262 130.755133,207.598146 131.479572,202.48463 Z M179.049105,201.709432 C169.127476,203.310644 158.873564,203.651412 149.127558,203.663369 C145.234942,203.668351 141.344323,203.429215 137.455699,203.084462 C137.709153,205.154977 137.84087,207.249407 138.031459,209.291027 C138.415432,213.416914 138.854327,217.536423 139.331283,221.652107 L139.756743,225.25333 L139.756743,225.25333 C152.260808,224.686379 164.763876,224.073594 177.264948,223.438888 L179.029148,223.344231 L179.029148,223.344231 L179.523638,216.423284 C179.860246,211.808262 180.23056,207.194273 180.753433,202.600212 L180.361278,202.458723 L180.361278,202.458723 C179.900271,202.269408 179.463213,202.008351 179.049105,201.709432 Z M183.357823,203.427223 C183.904645,209.952636 184.206994,216.504952 184.609128,223.041325 L192.850339,222.601065 C194.223751,222.526187 195.597126,222.449797 196.970501,222.370749 C202.310997,222.062862 209.173215,220.445708 214.452843,221.954255 C214.855974,217.154604 213.48393,212.478506 209.152261,209.254161 C201.547641,203.590632 191.864499,205.607342 183.357823,203.427223 Z M155.2009,145.0937 C167.4729,138.0657 198.2639,130.8827 200.2139,152.9677 C201.11069,163.130663 193.55511,171.551452 184.732334,175.308984 L184.4009,175.4477 C176.1259,178.8497 161.4589,182.6917 154.2979,175.3147 C148.3379,169.1747 156.2429,158.1657 163.6489,163.1957 C167.454921,165.779721 175.466095,163.875752 179.713009,162.646215 L179.9789,162.5687 C184.5619,161.2217 190.6719,156.9107 188.7769,151.2677 C187.0999,146.2757 179.9639,145.3637 175.4949,145.2017 C168.8239,144.9627 162.3319,146.5117 155.7219,147.0157 C154.6749,147.0957 154.3519,145.5797 155.2009,145.0937 Z M206.0359,109.581 C222.6919,108.801 233.0529,126.987 229.2229,141.888 C228.5609,144.459 225.6849,146.983 222.9089,146.694 L222.209444,146.629632 C221.8541,146.59548 221.4971,146.5506 221.1689,146.46 C218.5329,145.73 216.1699,142.988 216.3619,140.146 L216.412906,139.317884 C216.801522,132.278753 216.038672,124.168709 207.6729,122.464 C200.5779,121.018 196.6169,127.847 196.5329,134.133 C196.5169,135.249 195.2629,136.028 194.2759,135.428 C189.1469,132.307 188.2589,126.098 190.2179,120.751 C192.7009,113.976 198.9149,109.914 206.0359,109.581 Z M82.4329,113.4814 C94.5539,109.4374 107.6309,115.8984 113.4999,126.6144 C115.5589,127.2104 117.6149,128.7974 117.3289,131.2274 C116.9159,134.7234 116.2939,136.9274 113.8699,139.5784 C110.078488,143.725503 102.977604,141.605092 101.401739,136.499971 L101.3349,136.2694 C99.5449,129.6704 92.2809,125.3164 85.6639,127.6264 C77.9339,130.3244 78.1579,138.4884 72.7359,143.2444 C72.0989,143.8034 71.3349,143.8924 70.5709,143.5234 C64.8119,140.7404 65.8469,132.3644 67.8999,127.5704 C70.5929,121.2794 75.8269,115.6844 82.4329,113.4814 Z M65.9254,76.6741 C75.7474,66.6521 101.3594,56.9541 108.0784,75.4611 C109.3584,78.9861 106.6334,83.7391 102.9634,84.4701 C96.9534,85.6661 91.6214,83.0571 85.6514,83.5251 C80.8184,83.9061 75.7774,85.5211 71.9134,88.5151 C61.2114,96.8071 58.8574,110.8321 51.4004,121.3861 C51.0374,121.9001 50.3324,121.6841 50.2654,121.0781 C48.5674,105.7131 55.1674,87.6501 65.9254,76.6741 Z M194.0206,66.8082 C200.5386,64.5062 207.9196,64.7032 214.4716,66.7452 C221.0716,68.8032 227.1306,72.7112 231.7986,77.8172 C233.9166,80.1352 235.8766,82.6932 237.4486,85.4162 C238.2836,86.8592 239.1616,89.8402 240.1106,91.6152 C245.245093,94.5796058 247.439689,101.334701 242.842821,106.140464 L242.6356,106.3512 L242.0206,106.9612 C239.5496,109.4072 235.8236,110.4672 232.4506,109.4902 C224.9026,107.3062 223.9856,101.3612 221.3726,95.0512 C219.6466,90.8832 216.6896,87.1952 213.1046,84.4862 C204.6316,78.0862 190.7386,76.0472 180.5376,79.0632 C179.9946,79.2242 179.3566,78.5322 179.7436,78.0302 C181.6766,75.5262 182.7906,73.4712 185.3786,71.4512 C188.0056,69.4012 190.8726,67.9202 194.0206,66.8082 Z" id="Ink" fill="#000"/></g></g><g id="Beard" transform="translate(454.999934, 820.999659) scale(1 1)" fill="#000"><g id="Beard/Senior Mustache" stroke="none" stroke-width="1" fill="none" fill-rule="evenodd"><path d="M245.365277,32.8226847 C231.338969,30.4572303 216.766641,33.9532014 203.242791,37.6782594 C181.759624,23.5729056 153.92278,37.8103838 138.536995,55.4330191 C133.271305,59.7696855 122.213152,65.5298866 128.039044,73.8036493 C125.830655,79.6522886 125.240063,82.4045268 129.81082,75.5670849 C155.679361,78.5452133 183.43415,72.9192677 209.035253,67.6129782 C217.752312,70.5442237 225.450269,77.3976483 235.032448,75.0503077 C244.092921,76.9767679 253.901005,78.7753656 262.080148,72.9629541 C268.30821,72.7104258 282.164331,83.8941237 281.941466,70.8883866 C280.014697,58.4218027 255.296689,37.6782594 245.365277,32.8226847 Z" id="Background" fill="#E8E1E1"/><path d="M255.8834,72.8453 C240.6554,74.5303 225.2124,72.0543 212.4614,63.2123 C211.1304,62.2893 209.8184,62.2993 208.7484,62.8403 C207.4474,62.6963 206.1164,63.2153 205.3444,64.7013 C202.1424,70.8683 191.5294,69.4943 185.6954,69.6203 C166.6124,69.9883 146.8634,68.9353 128.4984,74.7043 C146.0624,40.3703 170.3534,25.5483 207.9404,39.0273 C204.5464,41.7603 221.4824,35.3623 222.9684,35.2403 C248.9744,28.7243 270.4294,50.5363 280.9104,72.1503 C272.9814,70.2633 264.0964,71.9363 255.8834,72.8453 M292.2074,78.6883 C280.7404,52.8593 258.1304,24.4593 226.5934,28.9233 C220.1184,29.8763 213.3074,34.2993 206.7884,33.5013 C187.9134,26.5303 172.3334,22.9883 153.4304,34.2603 C145.4104,34.8593 100.2784,90.7363 121.7254,86.1743 C148.0514,71.0563 193.8254,85.2963 210.1734,71.7743 C242.2684,92.8433 268.3644,69.9563 286.4524,83.1263 C289.5974,86.0113 294.0084,82.4183 292.2074,78.6883" id="Ink" fill="#000"/></g></g><g id="Mask" transform="translate(360.000000, 783.000000) scale(1 1)" fill="#000"><g id="Mask/None" stroke="none" stroke-width="1" fill="none" fill-rule="evenodd" fill-opacity="0"/></g><g id="Accessories" transform="translate(379.000000, 724.000000) scale(1 1)" fill="#000"><g id="Accessories/Glasses 3" stroke="none" stroke-width="1" fill="none" fill-rule="evenodd"><path d="M367.1336,98.3183 C360.4006,107.3633 347.9186,110.2443 336.4056,109.2493 C311.5746,106.8593 303.7596,78.6583 302.9456,56.7393 C319.5966,61.4233 301.5376,28.2493 358.4566,24.6013 C378.5216,22.9293 372.9896,35.0473 381.8546,43.9013 C381.6726,62.4833 378.5796,82.6743 367.1336,98.3183 M248.8626,76.9663 C234.2026,145.6193 153.9246,129.2893 145.4916,67.4033 C153.2786,61.9073 151.2276,48.3363 160.9016,43.4193 C176.2336,33.6233 195.3996,34.0423 212.8106,34.2723 C235.0656,35.8013 241.4076,45.0203 252.8396,55.0783 C252.2896,61.7963 250.7036,69.7583 248.8626,76.9663 M398.9346,13.2313 C398.1116,13.0943 397.2876,12.9653 396.4636,12.8443 C395.8206,12.4793 395.0656,12.1983 394.1876,12.0293 C392.1826,11.5203 390.1916,11.1773 388.2036,10.9923 C359.6716,4.5713 293.6646,13.6883 290.9406,38.0363 C281.8546,41.0693 273.9926,38.3533 263.4616,38.6233 C255.4456,5.1183 116.8626,9.8473 110.1976,30.0473 C110.1726,30.0403 110.1476,30.0343 110.1216,30.0263 C103.7176,28.0443 94.2766,28.5223 86.9466,28.2083 C71.2956,27.8803 55.6266,29.2753 40.3136,32.5763 C11.6386,37.1333 -27.4964,42.4683 -7.5534,78.2763 C-7.5494,78.2823 -7.5464,78.2893 -7.5414,78.2953 L-7.5384,78.2923 C-4.1014,81.8153 1.7316,78.9783 1.9486,74.2093 C-4.7564,57.2453 10.3876,55.2083 22.0396,50.3333 C51.0326,39.9173 80.5506,38.4733 110.5366,41.6953 C112.7926,44.3513 116.2156,46.6673 119.8336,47.8793 C139.8826,51.2073 129.3166,66.0793 141.9896,68.2423 C139.6616,120.0843 202.6026,148.3823 239.0716,114.3033 C253.6326,100.0673 257.1036,78.9783 260.4796,59.9693 C262.2646,59.5683 263.3996,58.5923 264.0626,57.3003 C268.3556,53.0143 271.0526,49.0563 279.5416,47.8793 C288.0306,46.7033 294.5656,49.0643 295.4496,49.7873 C295.6726,50.2363 295.9116,50.6863 296.1896,51.1363 C296.5776,51.8073 297.1056,52.3423 297.7056,52.7633 C289.3226,104.3873 329.3996,137.0353 369.8586,110.2603 C387.4386,93.7233 391.1536,68.4053 391.8876,45.8073 C394.2706,44.3693 395.7796,41.5823 394.9546,38.0783 C393.8176,33.2483 396.4836,29.0663 400.7296,26.9663 C406.2466,24.2393 405.2706,14.2803 398.9346,13.2313" id="Ink" fill="#000"/></g></g></g></svg>