<svg viewBox="-65.5 205.6875 1146.2499999999998 2920.7625" xmlns="http://www.w3.org/2000/svg" overflow="visible" xmlns:xlink="http://www.w3.org/1999/xlink" width="1146.2499999999998px" height="2920.7625px"><g id="Master/Character/Standing" stroke="none" stroke-width="1" fill="none" fill-rule="evenodd"><g id="Standing" transform="translate(-121.000000, 634.000000) scale(1 1)"><g id="Standing/Crossed Arms 1" stroke="none" stroke-width="1" fill="none" fill-rule="evenodd"><path d="M1153.53481,2397.68704 C1159.57181,2373.28527 1150.68967,2353.82143 1125.18767,2339.44972 C1122.99318,2333.6437 1073.70473,2314.81678 1034.53985,2287.18083 C999.354488,2262.35295 973.832663,2228.26853 972.762672,2226.37896 C967.488281,2214.10906 964.550467,2205.20497 963.949231,2199.66671 C959.623924,2159.82432 962.125738,2133.70675 959.454672,2121.31397 C977.450672,2118.95146 1021.69267,950.168503 1014.53767,911.431588 C1026.25667,908.855649 1038.68467,906.139401 1049.85667,899.531083 C1050.74767,899.301847 1049.28267,896.712074 1049.32467,896.224948 C1077.35267,841.197463 1034.35667,654.083658 1007.40867,602.279309 C1028.80867,601.722028 1056.99567,598.811128 1070.24467,580.940608 C1076.51667,578.877485 1080.47067,575.280853 1083.51467,569.502527 C1087.01967,563.997901 1090.27267,558.22254 1093.20167,552.302918 C1107.45967,522.681094 1116.25567,489.789695 1111.50067,457.153221 C1112.40767,456.865688 1117.07467,456.836046 1117.30667,455.529796 C1117.76467,447.50654 1116.29167,440.436786 1113.88167,432.859156 C1089.39667,347.504354 1059.92267,263.469634 1020.96267,183.11257 C1001.43967,140.103172 961.047672,124.408418 919.195672,108.262108 C899.061672,100.350505 878.918672,91.2196043 857.905672,86.0380824 C857.640672,84.5678108 858.895672,80.0947464 856.141672,80.4593501 C852.740672,81.1687957 853.411672,86.6378505 852.150672,89.7068449 C803.561672,49.9284875 834.374672,29.4306479 805.076672,7.64533261 C774.760672,-8.09190965 737.788672,-8.73120115 704.363672,-5.32526946 C692.032672,-4.96857049 682.165672,0.590400122 679.257672,13.0037218 C668.657672,38.6880236 643.820672,57.5920808 616.724672,63.3872039 C614.485672,59.4012659 608.329672,47.9701015 604.881672,51.5785907 C565.748672,52.9144827 506.415672,67.28125 469.787672,78.0296471 C433.017672,87.4214025 395.819672,104.566667 386.199672,144.52288 C368.744672,215.722365 396.514672,508.332113 442.064672,564.683633 L443.545672,564.708335 C451.620672,572.972684 462.596672,579.030638 475.034672,583.090683 C474.755672,609.435026 466.452672,635.155887 462.320672,660.920224 C453.017672,707.645812 445.867672,754.421793 435.504672,801.396379 C435.458672,806.63027 415.741672,878.248704 435.180672,863.887865 C439.192672,865.86206 444.107672,868.011147 448.428672,869.854915 C427.776672,916.925345 418.326672,992.871595 419.790672,1051.02044 C420.156672,1085.64791 418.724672,1115.98313 410.957672,1151.44454 C353.494672,1451.90463 302.830672,2123.94129 301.639672,2132.92497 C300.544672,2141.51144 307.816005,2188.12152 301.639672,2200.41806 C296.158301,2211.33099 272.778644,2204.88677 268.306168,2209.09736 C256.691168,2228.01525 262.008931,2240.06904 252.481931,2258.9563 C247.595931,2263.32858 236.671904,2272.89226 233.087904,2279.6152 C225.832904,2286.60195 105.677672,2365.45504 110.547672,2377.41977 C110.547672,2377.41977 109.999672,2383.16066 109.815672,2384.40762 C99.5716722,2444.01587 116.629672,2443.52084 171.819672,2452.2901 C252.441672,2466.51261 312.695672,2439.14888 380.831672,2402.5897 C403.473672,2387.31884 435.655672,2358.16406 425.180672,2323.63343 C424.891672,2321.52288 418.678332,2285.20282 416.214332,2266.7602 C420.666128,2256.91419 414.27736,2252.60512 397.048027,2253.83298 C401.298027,2249.16823 410.634672,2188.7281 407.449672,2180.73251 C405.426672,2160.13784 408.567672,2141.44425 407.573672,2120.24783 C418.399672,2121.05114 608.466672,1219.8932 727.684672,1163.89343 C728.421672,1169.87926 726.991672,1181.02091 734.935672,1182.13745 C771.810672,1469.84234 860.470672,2114.36576 864.541672,2115.49415 C858.431672,2148.34899 858.616672,2224.51299 858.502672,2257.12871 C857.567672,2258.0002 853.275672,2261.832 852.584672,2262.76574 C852.440672,2262.52267 849.645672,2265.315 849.502672,2265.38713 L849.124672,2264.52157 C836.566672,2292.84208 818.263656,2322.00898 834.440656,2349.76332 C822.434656,2348.88886 824.361672,2371.99456 823.824672,2382.62636 C830.663129,2403.43312 1025.06467,2459.57237 1068.50667,2462.23823 C1082.77967,2464.72919 1149.25291,2443.58466 1162.04491,2440.5463 C1178.61991,2437.44667 1162.35981,2406.63712 1153.53481,2397.68704 Z" id="Skin" fill="#ffdbb4"/><path d="M853.847018,2261.58078 C850.160055,2275.3689 856.858556,2282.26296 873.942522,2282.26296 C899.568472,2282.26296 915.813186,2242.88039 928.486477,2238.36912 L933.413783,2236.58177 C940.822098,2233.8634 953.389411,2229.16031 971.115724,2222.4725 C971.636788,2223.73503 972.185752,2225.03686 972.762672,2226.37896 C973.832663,2228.26853 999.354488,2262.35295 1034.53985,2287.18083 C1073.70473,2314.81678 1122.99318,2333.6437 1125.18767,2339.44972 C1150.68967,2353.82143 1159.57181,2373.28527 1153.53481,2397.68704 C1162.35981,2406.63712 1178.61991,2437.44667 1162.04491,2440.5463 C1149.25291,2443.58466 1082.77967,2464.72919 1068.50667,2462.23823 C1025.06467,2459.57237 830.663129,2403.43312 823.824672,2382.62636 L823.866792,2381.6368 C824.258591,2370.6298 822.794836,2348.9151 834.440656,2349.76332 C818.587196,2322.56406 835.848344,2294.00819 848.36462,2266.2218 L849.124672,2264.52157 L849.502672,2265.38713 C849.645672,2265.315 852.440672,2262.52267 852.584672,2262.76574 C852.761112,2262.52732 853.172331,2262.09995 853.702495,2261.58116 L853.847018,2261.58078 Z M338.841416,2236.10899 L339.015885,2236.70145 C341.970737,2246.90025 350.055228,2282.26296 359.593717,2282.26296 C366.082484,2282.26296 374.088069,2278.24225 383.610472,2270.20082 L384.710221,2269.18666 C393.071555,2261.52012 399.821284,2256.35449 404.959406,2253.68976 C416.15066,2254.24691 419.902253,2258.60365 416.214332,2266.7602 L416.527389,2269.05579 C419.16592,2288.05369 424.903232,2321.6073 425.180672,2323.63343 C435.655672,2358.16406 403.473672,2387.31884 380.831672,2402.5897 C312.695672,2439.14888 252.441672,2466.51261 171.819672,2452.2901 L166.955236,2451.52401 C115.630764,2443.49645 99.8789922,2442.22763 109.815672,2384.40762 L109.884813,2383.8764 C110.108969,2382.01566 110.547672,2377.41977 110.547672,2377.41977 C105.677672,2365.45504 225.832904,2286.60195 233.087904,2279.6152 C236.671904,2272.89226 247.595931,2263.32858 252.481931,2258.9563 C262.008931,2240.06904 256.691168,2228.01525 268.306168,2209.09736 C271.447561,2206.13991 283.91667,2208.43893 292.959826,2206.28784 C308.210869,2208.78476 336.128945,2227.06742 338.841416,2236.10899 Z" id="Shoes" fill="#FFF"/><path d="M615.575478,61.3428718 L616.724672,63.3872039 C644.312521,143.883713 689.529321,187.204164 752.375072,193.348555 C815.220823,199.492947 847.642863,179.335981 849.641191,132.877656 L856.626627,80.4471342 C858.739893,80.6600468 857.657788,84.6627751 857.905672,86.0380824 C878.918672,91.2196043 899.061672,100.350505 919.195672,108.262108 L925.460096,110.684138 C965.0347,126.04618 1002.41582,142.253642 1020.96267,183.11257 C1059.92267,263.469634 1089.39667,347.504354 1113.88167,432.859156 C1116.29167,440.436786 1117.76467,447.50654 1117.30667,455.529796 C1117.07467,456.836046 1112.40767,456.865688 1111.50067,457.153221 C1116.25567,489.789695 1107.45967,522.681094 1093.20167,552.302918 C1090.27267,558.22254 1087.01967,563.997901 1083.51467,569.502527 C1080.47067,575.280853 1076.51667,578.877485 1070.24467,580.940608 C1056.99567,598.811128 1028.80867,601.722028 1007.40867,602.279309 C1034.35667,654.083658 1077.35267,841.197463 1049.32467,896.224948 C1049.28267,896.712074 1049.891,910.770764 1049,911 C1037.828,917.608318 1017.719,921.42406 1006,924 L985,927 C985.755823,932.163796 1015.49008,936.051054 1015.09002,965.770292 L435,983 C439.142495,941.676515 438.854493,913.961489 452,884 L436,878 C432.177003,876.353256 438.619529,865.580032 435.180672,863.887865 C415.741672,878.248704 435.458672,806.63027 435.504672,801.396379 C445.867672,754.421793 453.017672,707.645812 462.320672,660.920224 C466.452672,635.155887 470.508672,614.834318 470.787672,588.489975 C458.608797,584.514515 453.176888,584.687996 445.152371,576.68575 L442.064672,572.822606 L439.599572,564.837217 C394.049572,508.485697 368.744672,215.722365 386.199672,144.52288 C395.819672,104.566667 433.017672,87.4214025 469.787672,78.0296471 L472.012255,77.3805345 C508.780912,66.7117917 566.531332,52.8877649 604.881672,51.5785907 C607.848145,48.4740414 612.819067,56.5017726 615.575478,61.3428718 Z M664.678609,376.191373 C634.797929,376.191373 603.041583,379.71829 569.409572,386.772124 L564.126164,394.211289 L569.409572,439.019309 C590.099322,436.85759 611.892624,439.755778 634.789477,447.713874 L635.880637,448.096655 C659.176522,456.344251 675.827507,462.675354 685.833592,467.089964 L722.103946,497.627183 L710.472179,552.155304 L713.278316,552.285786 C758.705841,554.328728 784.236927,552.047508 789.871572,545.442124 C795.621211,538.701936 798.171847,531.881603 797.523481,524.981124 L796.407996,522.317747 C778.395379,479.130642 770.524378,451.364496 772.794994,439.019309 C775.111949,426.422179 775.111949,416.549429 772.794994,409.401058 L770.270569,408.085955 C729.158996,386.8229 693.961676,376.191373 664.678609,376.191373 Z" id="Top" fill="#9DDADB"/><path d="M687.346572,6.0078681 C693.638546,5.81576795 694.840029,13.7336455 690.538956,17.0166017 L690.361572,17.1471239 C686.694572,19.7481239 684.974572,22.0741239 682.984572,26.2241239 C673.281572,51.9051239 645.919572,66.6341239 619.158572,61.1801239 C628.453572,78.5201239 634.695572,95.3021239 644.000572,112.349124 C686.844572,200.610124 827.548572,229.323124 844.376572,108.223124 C818.594572,103.241124 803.315572,45.2611239 819.858572,27.9631239 L820.305765,30.0684578 C825.073998,52.778104 828.335982,76.0277139 845.550572,93.1511239 C846.074572,93.3041239 846.575572,93.3511239 847.069572,93.3511239 C847.725572,90.2421239 848.481572,87.1671239 849.422572,84.1511239 C851.713572,76.7921239 863.180572,78.1761239 862.858572,86.1371239 C897.191572,96.5991239 930.185572,111.418124 963.024572,125.734124 C990.326572,137.644124 1012.64957,158.948124 1025.36757,185.926124 C1061.02457,259.721124 1088.25057,337.619124 1111.98857,415.983124 C1113.57857,426.573124 1131.32757,465.931124 1117.00757,469.715124 C1120.52057,502.137124 1111.53657,534.932124 1097.65657,564.047124 C1091.21657,574.986124 1086.67057,590.152124 1073.73257,594.714124 C1060.29957,611.587124 1035.73657,615.965124 1015.28657,617.157124 C1042.79057,681.907124 1080.16157,846.839124 1054.88957,911.180124 C1057.13257,921.735124 1028.01157,926.748124 1020.21957,929.160124 C1026.49957,966.690124 1025.12957,1005.35012 1022.42157,1043.15012 C997.060572,1365.56212 992.247572,1689.74512 1018.92957,2012.24012 C1020.49957,2032.34012 1022.19057,2052.44012 1023.97957,2072.53012 L1025.06277,2084.57612 C1026.48213,2100.61612 1027.68837,2116.59212 1027.31957,2132.76012 C1027.20057,2138.37012 1022.54957,2141.74012 1017.89957,2142.03012 C1002.28257,2151.99512 981.306572,2152.07812 963.239572,2154.48012 C966.430572,2171.89912 968.218572,2199.07412 973.803572,2213.73012 C985.429572,2210.69212 992.922572,2221.53112 981.335572,2227.65212 C995.598572,2235.56712 1002.93657,2250.71812 1014.35457,2261.35312 C1045.71757,2248.61512 1051.55757,2267.64812 1025.92857,2271.98912 C1032.89657,2277.80612 1040.29357,2283.17912 1047.94057,2288.28212 L1048.48397,2288.20599 C1057.52562,2286.83464 1074.57093,2279.35622 1078.85157,2289.25912 C1080.77257,2296.42712 1071.92357,2298.70512 1065.51357,2299.57612 C1071.20157,2303.16312 1076.90857,2306.73012 1082.61657,2310.29212 C1087.61157,2308.09312 1092.56557,2305.34712 1097.65857,2303.58612 C1110.19657,2300.79512 1111.27857,2317.06612 1094.91657,2317.98412 C1105.16657,2325.55612 1119.31457,2321.19412 1125.86557,2331.88012 C1149.83757,2341.55912 1161.16857,2370.79212 1155.57357,2394.15312 C1163.98957,2401.63912 1169.89957,2412.85912 1170.58257,2424.13312 C1172.20457,2436.21212 1162.59257,2447.57512 1149.57057,2450.75512 C1134.90357,2455.63712 1120.02357,2460.09412 1105.18457,2464.28312 L1103.62946,2464.81734 C1091.39886,2468.986 1078.04431,2472.72014 1065.32457,2471.99212 C989.894572,2467.49212 889.308572,2436.50712 828.934572,2397.95212 C813.876572,2386.63212 811.243572,2358.64012 831.967572,2349.68812 C822.417572,2332.37412 826.980572,2319.79312 831.028572,2300.93612 C833.839572,2288.63712 837.656572,2276.01712 844.565572,2264.63812 C845.178572,2263.62812 846.652572,2263.93212 846.734572,2264.92612 C847.639072,2277.79355 846.438399,2290.9576 845.47995,2303.91347 L845.374572,2305.35212 C844.516572,2317.30312 842.580572,2321.70012 845.821572,2333.01212 C853.580572,2361.87712 928.380572,2376.29212 957.774572,2388.19612 C980.849572,2395.34312 1004.27657,2401.74512 1028.03257,2407.37312 L1029.77492,2407.75085 C1049.8292,2412.16377 1070.4778,2418.84162 1091.59957,2415.37412 C1102.55357,2407.40512 1118.99357,2409.64812 1129.75657,2400.53112 C1145.99157,2382.99912 1133.22657,2357.30012 1121.85157,2341.36812 C1110.85138,2344.87779 1101.4485,2335.43427 1093.34992,2330.44003 L1093.05057,2330.25712 C1084.78157,2325.02612 1076.53357,2328.69012 1068.25157,2323.47212 L1066.38075,2323.826 C1035.95503,2329.62606 1012.39791,2336.23994 1060.92457,2318.88512 C1052.93157,2313.88912 1044.91857,2308.85112 1037.15457,2303.55212 C1021.21757,2305.47412 1003.75657,2313.84312 988.944572,2314.60312 C998.912572,2305.31512 1012.51157,2300.17212 1025.32557,2295.06412 C1017.86557,2289.39912 1010.76657,2283.33712 1004.41657,2276.66712 L998.350717,2278.18042 C961.085025,2287.4355 946.436072,2290.10932 996.605572,2267.54112 C986.738572,2256.58512 985.135572,2240.36112 974.287572,2230.05512 C956.841572,2233.71012 940.811572,2241.38312 926.602572,2251.29212 C920.856572,2255.40612 916.528572,2260.54612 911.977572,2265.69312 C890.412572,2293.43712 857.004572,2297.71812 846.798572,2261.73112 C846.622239,2260.99321 847.779426,2260.53448 848.105,2261.15852 L848.142572,2261.24612 C853.024262,2272.29848 868.774281,2281.26029 881.92973,2274.39114 L882.327572,2274.17812 C895.192572,2267.47312 901.168572,2253.79312 911.302572,2244.47412 C924.978572,2232.12612 942.120572,2223.84812 959.807572,2217.63412 C955.519572,2201.96512 954.072572,2173.44212 954.559572,2155.06012 C924.779572,2156.46712 894.804572,2155.03112 865.549572,2149.37012 C870.236572,2183.54312 867.155572,2228.01412 869.309572,2258.48912 C872.423572,2268.71412 853.479572,2275.10512 851.465572,2264.91912 C850.352572,2231.94712 853.577572,2184.38612 858.599572,2147.59012 L856.498337,2147.07929 C854.514599,2146.58577 852.430906,2145.99079 850.729572,2145.03012 C831.955572,2147.15612 837.076572,2099.44912 833.924572,2086.03112 C812.743572,1790.14912 768.126572,1496.92212 730.209572,1202.99012 C724.951572,1200.97812 724.018572,1194.52312 723.149572,1189.13012 C675.369572,1221.47312 665.847572,1286.10812 644.459572,1336.21012 C551.052572,1595.62912 509.318572,1869.32012 444.580572,2136.46012 L444.936557,2136.55403 C445.190788,2136.62972 445.193037,2136.66743 444.6617,2136.62944 L444.539572,2136.62012 L444.539572,2136.64012 C448.539572,2137.17012 451.690572,2141.37012 449.249572,2145.28112 C441.961572,2159.99012 421.758572,2154.78412 408.459572,2153.85012 C409.750572,2176.50412 404.899572,2225.38412 407.973572,2245.56812 C424.378572,2245.87112 425.421572,2263.92812 427.593572,2274.66212 L427.762309,2275.76446 C430.661323,2294.1017 440.404032,2328.48568 433.125572,2343.31112 C444.376572,2356.69912 436.283572,2374.88812 424.611572,2384.02912 C412.112572,2393.26412 396.554572,2398.67712 382.425572,2405.79312 C315.926572,2432.65912 251.591572,2484.45912 170.101572,2464.52512 L166.553852,2463.77729 C109.440251,2451.70757 93.0310522,2446.34548 104.373572,2389.81712 C99.7155722,2378.32912 99.6845722,2365.74812 106.238572,2355.58812 C117.926572,2340.58812 137.564572,2332.38212 153.190572,2320.98612 C179.657572,2303.20312 207.826572,2287.65012 233.677572,2269.13812 C232.716572,2268.30512 234.050572,2267.99812 234.834572,2268.13912 C253.078572,2253.85512 251.371572,2229.12712 264.099572,2211.48412 C267.282572,2202.39212 283.355572,2200.17612 293.940572,2201.43612 C290.633572,2184.49112 306.788572,2107.35612 308.840572,2161.84012 L308.839854,2162.62209 C308.879802,2171.03379 310.257094,2199.11347 307.780572,2204.61212 C342.914572,2215.34912 350.490572,2249.10212 358.009572,2276.35812 L358.49357,2276.4885 C360.893571,2277.10743 364.108346,2277.60858 365.308572,2279.96412 C376.606572,2272.78412 379.763572,2258.64812 390.705572,2251.04212 C387.636572,2248.64212 387.474572,2244.06112 389.040572,2240.50912 C394.136572,2221.82512 397.191572,2174.26912 404.889572,2153.40012 C368.720572,2147.98112 331.873572,2145.22412 296.549572,2135.39012 C291.959572,2139.90012 282.539572,2138.30012 282.909572,2130.16012 C293.849572,1952.79912 312.665572,1775.98712 336.384572,1599.90112 C355.886572,1435.07712 390.194572,1272.35112 414.091572,1108.39012 L414.294059,1085.8866 C414.939062,1018.2389 416.746172,949.578624 441.969572,885.890124 C439.749572,884.920124 437.549572,883.920124 435.379572,882.870124 C408.028572,894.207124 429.577572,825.316124 430.583572,812.901124 C444.024572,740.917124 459.857572,668.947124 469.952572,596.514124 C459.370572,592.686124 449.599572,587.256124 441.448572,579.365124 C392.030572,539.137124 363.382572,213.345124 381.343572,147.838124 C390.718572,106.632124 430.447572,86.3891239 468.312572,77.0751239 L473.905431,75.4946649 C516.194784,63.5981324 559.218051,52.8182506 603.247572,50.1691239 C604.815572,48.7471239 609.426572,49.1561239 610.030572,50.3421239 C612.788572,52.0031239 615.406572,55.2461239 617.620572,58.6721239 C678.734572,51.6481239 662.204572,11.6991239 687.346572,6.0078681 Z M833.553572,2352.29312 C824.997572,2371.72612 836.366572,2386.50612 855.427572,2394.67612 C921.434572,2425.28112 995.125572,2449.87612 1070.77657,2454.57312 C1093.85957,2448.99012 1116.72257,2439.76412 1140.11357,2434.05612 L1141.12257,2433.87424 C1149.35633,2432.36217 1153.2243,2430.84697 1152.51757,2422.29312 L1152.8178,2418.83491 C1153.34549,2412.68954 1153.79136,2406.55644 1153.36357,2400.41412 C1146.16757,2417.62212 1124.62857,2427.08112 1105.74657,2430.55612 C1075.80757,2444.76512 1042.27857,2430.31612 1012.86457,2424.23012 C965.088572,2409.70312 861.725572,2386.87712 833.553572,2352.29312 Z M418.871572,2352.69912 L417.883464,2353.00204 C409.314698,2355.6533 400.602202,2358.90116 390.998572,2356.51012 C348.098572,2371.05312 306.341572,2387.54912 264.898572,2404.72312 C220.182572,2426.13212 148.180572,2451.02212 109.430572,2399.28312 C115.001572,2426.42112 107.125572,2435.70212 144.122572,2442.47212 C202.826572,2461.61512 249.995572,2451.81312 298.707572,2425.65612 C334.396572,2408.30312 372.782572,2394.50812 407.327572,2375.64912 L407.793811,2375.32092 C414.588923,2370.4693 422.78755,2361.62005 418.871572,2352.69912 Z M329.769572,2235.87212 C318.568572,2215.20712 288.426572,2203.85912 266.009572,2211.47712 C263.728572,2231.40712 269.637572,2253.71912 256.983572,2271.02412 C268.188572,2272.98858 279.358093,2275.25159 290.510756,2277.59464 L300.716554,2279.75193 C305.725489,2280.84915 312.099239,2282.72762 311.262572,2288.04012 C310.336943,2293.91296 302.63005,2292.11866 297.501145,2290.64123 L295.513572,2290.05812 C281.109572,2285.81812 266.729572,2281.49312 252.508572,2276.64712 C245.012572,2284.89712 234.949572,2291.36812 225.190572,2297.61712 L229.238283,2298.07739 C243.419659,2299.66963 257.738007,2301.11578 271.749572,2303.98912 C277.871572,2305.80312 276.550572,2314.14912 270.286572,2313.48112 C253.558572,2309.11712 236.874572,2304.18312 219.859572,2301.05212 C211.542572,2306.55112 203.264572,2312.07812 194.927572,2317.55112 C211.324572,2319.92412 227.793572,2320.13812 244.182572,2321.53712 C254.793572,2322.51612 254.790572,2337.01812 244.181572,2336.18112 C225.036572,2334.42612 205.903572,2328.76112 187.675572,2322.32512 L178.068875,2328.64149 C166.856325,2336.00883 155.618906,2343.35701 144.269572,2350.54912 C137.440572,2354.90012 128.620572,2359.03912 123.848572,2365.33912 C108.778572,2389.67912 146.434572,2412.93912 171.880572,2412.55412 C210.527572,2412.96512 242.715572,2392.89812 276.569572,2380.88612 C295.296572,2376.25012 390.507572,2328.58312 399.171572,2341.12912 C404.618572,2338.51212 412.194572,2337.56812 416.116572,2333.25712 C416.910572,2313.32612 412.711572,2292.44512 409.187572,2272.34312 C408.469572,2268.83412 406.753572,2264.62612 406.561572,2261.02412 C390.701572,2266.87312 386.185572,2289.01012 365.309572,2287.12612 C362.042572,2292.34612 351.980572,2289.91412 347.440572,2285.76912 C342.499572,2281.26012 341.879572,2274.90912 340.700572,2269.25212 L340.154188,2266.65312 C337.937525,2256.23293 335.280341,2245.55705 329.769572,2235.87212 Z M799.731572,545.442124 L797.180354,546.08713 C771.203102,552.587414 744.028271,557.289886 717.331572,555.544124 C712.716572,573.005124 715.122572,614.538124 696.351572,621.175124 C689.938572,623.591124 680.288572,621.630124 677.348572,615.082124 C638.521572,614.392124 599.422572,610.922124 560.593572,608.613124 C531.364572,606.314124 501.038572,606.402124 472.901572,597.532124 C476.310572,614.699124 477.484572,631.553124 475.576572,649.110124 C469.01276,723.99153 447.406282,796.948514 440.164446,871.508426 L439.830572,875.060124 L439.620572,874.940124 C439.620572,875.080124 439.610572,875.220124 439.599572,875.360124 C441.709572,875.970124 443.819572,876.610124 445.919572,877.260124 C446.669572,876.880124 447.690572,877.250124 448.229572,877.970124 C602.865572,926.069124 767.002572,946.959124 928.169572,925.790124 C956.394572,922.267124 984.415572,917.331124 1012.23957,911.480124 C1011.99657,908.991124 1015.79357,908.339124 1016.45957,910.690124 C1022.63457,909.613124 1028.80857,908.434124 1034.95057,907.640124 C1034.20957,905.550124 1034.07957,903.290124 1034.84057,901.250124 C1046.81757,865.310124 1041.34557,824.334124 1037.56757,787.061124 C1032.74957,729.835124 1020.74057,673.702124 1011.03957,617.248124 C965.115572,615.161124 919.466572,607.665124 873.320572,608.604124 C868.459572,621.204124 851.513572,631.787124 838.246572,624.583124 C828.878572,619.523124 826.104572,608.493124 822.344572,599.378124 C814.911572,581.357124 807.321572,563.399124 799.731572,545.442124 Z M605.144572,51.8771239 C556.919572,66.1241239 507.511572,76.2981239 459.725572,92.1101239 C420.011572,102.006124 392.900572,126.924124 391.226572,169.420124 C387.949572,260.453124 397.929572,351.946124 412.993572,441.656124 L413.779932,445.707101 C422.13773,488.942316 429.629815,532.933912 445.413572,574.143124 C468.455572,584.856124 494.617572,587.907124 519.826572,589.147124 C556.613572,591.019124 593.398572,592.942124 630.153572,595.349124 L658.971572,597.218124 C667.332572,597.760124 678.958572,596.328124 685.241572,602.830124 C685.798447,603.746999 686.931006,603.632038 687.792202,604.200756 L687.960572,604.324124 C688.877572,604.947124 689.801572,606.460124 691.123572,606.167124 C693.27339,605.499972 694.098309,601.213559 694.60315,599.166314 L694.649572,598.981124 C697.448572,588.030124 699.476572,576.843124 702.061572,565.833124 C707.953572,544.168124 710.491572,521.267124 719.446572,500.530124 C706.627572,492.349124 694.553572,482.996124 684.199572,471.898124 L671.715003,467.501541 C641.847637,457.021186 611.643817,446.867634 580.513572,440.586124 C579.767572,447.419124 569.961572,451.326124 566.304572,444.175124 C560.242572,425.957124 559.118572,406.177124 554.938572,387.400124 C545.449572,331.379124 534.175572,275.562124 527.612572,219.095124 C545.706572,269.107124 555.081572,330.491124 568.910572,384.542124 C569.551572,384.169124 570.438572,384.386124 570.465572,385.271124 C619.428572,366.754124 673.788572,367.508124 722.108572,387.158124 C734.212572,392.013124 746.505572,396.372124 758.545572,401.379124 C762.657572,403.701124 770.848572,403.559124 772.229572,408.636124 C773.708572,405.190124 775.696572,401.963124 778.336572,399.786124 C779.160572,398.088124 788.519572,395.057124 789.433572,398.417124 C844.327572,405.951124 897.701572,429.833124 954.184572,425.801124 C947.500572,401.399124 948.291572,375.047124 947.843572,349.846124 L947.979581,347.008654 C949.142073,322.182354 949.983239,291.456346 958.398572,271.026124 C953.013572,322.458124 956.923572,373.976124 963.495572,424.930124 C1003.33457,419.790124 984.990572,442.570124 958.455572,441.715124 C904.906572,445.573124 855.487572,421.890124 806.205572,404.631124 C779.287572,393.870124 776.236572,402.984124 777.436572,428.560124 C777.461572,461.860124 792.541572,492.252124 806.201572,521.797124 L812.33841,535.596346 C822.538572,558.558013 832.598572,581.372457 842.508572,604.609124 C885.805572,590.252124 934.552572,598.129124 979.406572,600.745124 C1013.63157,605.044124 1038.20757,603.518124 1067.16157,583.720124 C1077.60557,563.766124 1091.36657,544.842124 1096.74757,522.335124 C1102.98857,501.707124 1105.06657,480.100124 1106.88657,458.723124 L1105.24667,452.74201 C1084.14423,375.993483 1060.79171,299.62039 1028.88057,226.519124 L1027.15402,222.491391 C1016.33536,197.174955 1005.34633,170.608892 983.458572,152.876124 C946.725572,125.753124 901.295572,113.723124 862.681572,89.5891239 L862.435232,91.3547697 C858.51649,119.039257 851.747572,147.738041 834.028572,170.012124 C801.288572,210.214124 739.472572,211.345124 697.575572,185.235124 C653.989572,161.136124 627.840572,116.267124 615.118572,69.3661239 L614.969338,68.8506437 C613.778304,64.6707269 610.462833,52.014863 605.144572,51.8771239 Z M723.510572,503.067124 C723.483572,517.810124 720.574572,532.342124 718.606572,546.895124 C741.265572,542.423124 763.857572,539.304124 786.143572,533.259124 C764.434572,525.057124 743.338572,515.176124 723.510572,503.067124 Z M668.949572,384.161124 C635.908572,377.693124 602.080572,381.562124 569.409572,386.772124 C572.959572,403.275124 577.014572,419.630124 580.404572,436.155124 C592.104572,435.619124 703.091572,455.274124 690.565572,471.052124 C706.948572,479.813124 722.468572,490.112124 738.776572,499.063124 C755.178572,508.065124 772.254572,515.802124 789.871572,522.087124 L788.942274,520.018688 C773.780618,486.146861 759.614992,448.029644 771.297572,411.011124 C755.588572,417.316124 734.144572,403.772124 718.924572,398.705124 C702.768572,392.221124 686.128572,387.106124 668.949572,384.161124 Z M431.079772,253.002124 C431.189772,246.822124 450.275772,264.541124 452.766772,266.381124 L454.272507,267.743554 C472.588104,284.364665 490.681346,302.649977 500.885772,325.457124 C501.631772,347.872124 468.226772,293.572124 463.595772,290.255124 C453.490772,277.249124 441.180772,265.954124 431.079772,253.002124 Z M959.227572,305.762324 C954.063572,307.462324 968.157572,289.948324 973.653572,291.226324 C975.840572,290.907324 977.743572,294.077324 975.315572,295.167324 L974.109879,295.698481 C968.470186,298.145204 962.704239,300.234191 959.227572,305.762324 Z" id="Ink" fill="#000"/></g></g><g id="Head" transform="translate(405.000000, 189.000000) scale(0.9978902953586498 1)"><g id="Head/Gray Short" stroke="none" stroke-width="1" fill="none" fill-rule="evenodd"><path d="M287.4077,509.471946 C265.2117,509.6 246.3477,503.302 231.9537,492.883 C213.9917,486.478 192.3257,476.599 179.1657,466.228 C174.0327,467.538 167.8907,462.085 163.9627,459.207 C139.5377,440.968 120.3657,414.271 114.6847,387.529 C105.9147,398.599 93.4347,399.059 81.4797,393.557 C56.4197,379.345 57.3567,349.42 66.3787,327.062 C47.4117,284.505 34.2667,172.159 63.2197,126.818 C69.1417,120.034 77.8327,115.976 84.0897,109.019 C89.6577,102.943 94.9537,96.728 101.4317,91.92 C121.1977,76.876 155.2417,68.866 176.5577,65.099 C265.5397,45.861 333.9077,80.439 414.5097,109.606 C409.8707,121.206 403.4537,131.785 396.0997,141.649 C416.1097,149.118 406.9187,165.911 391.3947,174.424 L382.1527,169.932 C396.5597,221.478 429.7157,349.66 415.4097,390.823 C404.0017,455.043 353.9357,509.935 287.4077,509.471946" id="Skin" fill="#ffdbb4"/><path d="M414.180138,110.065812 C409.541138,121.665812 403.124138,132.244812 395.770138,142.108812 C415.780138,149.577812 406.589138,166.370812 391.065138,174.883812 L384.383504,171.634526 C381.459208,152.77851 375.828896,142.936124 367.492567,142.107368 C353.825126,140.748619 323.578556,166.316266 310.407201,166.316266 C297.235845,166.316266 230.32078,137.719149 193.56334,137.719149 C156.8059,137.719149 125.514732,168.079928 113.081399,190.084218 C104.792509,204.753744 110.960581,221.19799 131.585612,239.416956 C119.24947,255.229059 113.081399,266.592647 113.081399,273.507721 C113.081399,280.422794 114.522923,294.715028 117.405971,316.384422 C104.122956,312.025601 93.6827919,309.846191 86.0854789,309.846191 C78.4881659,309.846191 71.8937551,314.053147 66.3022465,322.467058 L66.3022465,322.467058 L63.9514038,322.471608 C46.159461,276.671044 35.0178727,170.926359 62.8901376,127.277812 C68.8121376,120.493812 77.5031376,116.435812 83.7601376,109.478812 C89.3281376,103.402812 94.6241376,97.1878124 101.102138,92.3798124 C120.868138,77.3358124 154.912138,69.3258124 176.228138,65.5588124 C265.210138,46.3208124 333.578138,80.8988124 414.180138,110.065812 Z" id="hair" fill="#ECDCBF"/><path d="M300.264824,514.999146 C271.444908,517.957475 237.206802,511.144166 217.993995,487.732675 C217.419467,487.031952 217.167937,486.238551 217.152938,485.472368 C217.13626,484.620382 217.422202,483.797293 217.916337,483.156895 C218.435664,482.483847 219.174997,482.014618 220.022563,481.862398 C220.736183,481.734235 221.549772,481.816691 222.388568,482.287221 L224.15486,483.270733 C237.276321,490.517978 250.903537,496.698407 265.773803,499.343499 C281.084661,502.066522 296.67481,501.761975 311.849305,498.303574 C339.489999,492.005907 361.859818,475.940527 378.325184,454.757114 C396.699419,431.117858 407.732864,401.109793 410.545324,371.100003 C413.953335,334.731308 406.047708,298.584201 397.868463,263.370107 C389.273992,226.369129 379.879811,189.55683 368.967102,153.171812 C368.638196,152.076531 368.549815,151.051323 368.644781,150.107121 C365.426107,148.84613 362.000374,149.196196 358.590917,150.347326 C352.361263,152.450634 346.155262,157.193632 340.979537,161.108796 C339.105014,162.526774 337.3611,163.844794 335.794036,164.917168 C329.376153,169.308738 322.360001,172.468602 314.515734,172.965619 C306.356424,173.481228 298.357344,170.945476 290.947203,167.772079 C287.182629,166.159761 283.478478,164.487414 279.789159,162.821628 C269.284189,158.078466 258.903213,153.382071 247.558851,150.329885 C232.358233,146.239084 216.664318,144.224181 200.921891,144.368516 C172.826348,144.625476 144.644623,151.857285 127.425097,175.619154 C120.449982,185.244775 115.902367,196.307893 119.449013,208.187445 C121.378379,214.649794 125.019524,220.516388 128.993518,225.912105 L130.357003,227.749609 C132.536963,230.71144 134.430425,233.661356 135.001361,236.802033 C135.479644,239.433029 135.106583,242.21642 133.227756,245.267056 C132.045555,247.187472 130.540571,248.909567 129.027294,250.626056 C127.935764,251.864164 126.841105,253.099987 125.899304,254.43071 C124.001338,257.113411 122.320872,260.002803 121.002901,263.016269 C118.422043,268.915099 117.327288,275.260597 117.098312,281.660365 C116.821089,289.381252 117.906731,296.934244 118.983467,304.49805 C119.746944,309.861287 120.508775,315.229905 120.816402,320.66355 C120.870084,321.611732 120.580215,322.318162 120.174147,322.840987 C119.67725,323.480758 118.952174,323.884003 118.127005,323.995712 C117.876495,324.029625 117.617099,324.035024 117.356582,324.011965 C117.484577,324.534651 117.597584,325.059758 117.695677,325.586651 C117.174097,324.916138 116.619195,324.265468 116.033506,323.636513 C115.996111,323.61768 115.959013,323.598164 115.92224,323.577967 C115.318351,323.246281 114.806858,322.74073 114.484467,322.089845 C113.655038,321.319083 112.776878,320.587951 111.855612,319.900601 C107.061582,316.323807 101.463549,314.203568 95.8479618,314.133271 C90.434387,314.065502 85.0075466,315.908855 80.8349243,319.802002 C72.5415317,327.539189 70.1122264,340.16973 70.025537,351.014473 C69.937679,362.084577 72.4996612,375.370161 82.1516545,382.243406 C86.0234276,385.00027 90.7520396,386.656769 95.5156733,386.704701 C99.4646897,386.744338 103.243202,385.347234 106.963587,384.016255 C108.110883,383.605806 109.252727,383.197607 110.391752,382.826752 C111.685932,382.405635 112.865331,382.432405 113.893343,382.740306 C115.052066,383.087357 116.035472,383.804034 116.770164,384.75992 C117.502013,385.712107 117.981704,386.904146 118.130379,388.152481 C118.274321,389.361075 118.108665,390.616075 117.59693,391.747468 C117.468468,392.032464 117.332956,392.309098 117.191918,392.579243 L119.314896,396.06982 C127.443531,409.401176 135.714387,422.489228 146.560113,433.947752 C152.785403,440.524706 159.384065,446.731343 166.622156,452.164333 L167.666108,452.939363 C168.290786,453.397926 168.983664,453.963277 169.722636,454.56779 C171.833761,456.294785 174.364081,458.610918 176.726402,458.702114 C177.427437,458.729405 178.039351,458.641716 178.596007,458.568656 C179.941197,458.392103 181.069754,458.340429 182.178654,458.792796 C183.070592,459.156655 183.996217,459.836109 184.946764,461.239386 C185.589754,462.189157 185.919757,463.380366 185.919757,464.58899 C185.919757,465.803151 185.585789,467.01782 184.991404,467.977867 C183.761816,469.965279 182.274028,471.196069 180.659998,471.895036 C178.860478,472.674329 176.871763,472.793356 174.804602,472.407812 C169.712247,471.458041 164.074825,467.239995 160.487534,464.487244 L159.793634,463.955793 C151.844827,457.892611 144.311502,451.183932 137.689208,443.681164 C126.410996,430.904705 116.28212,415.848689 111.079427,399.397936 C107.412422,401.806783 102.881874,402.950208 98.1451385,403.130298 C91.2440463,403.392677 83.9399101,401.617185 78.5576512,399.064708 C66.6958247,393.43971 59.491158,382.800577 56.1146872,370.565771 C52.1936424,356.357675 53.4680375,340.022904 58.4318986,327.25949 C58.575778,326.888464 58.726086,326.518853 58.8803498,326.143497 C43.5985335,287.426343 38.8996548,244.433632 40.2086015,203.115315 C40.8208856,183.774991 42.1378979,163.483694 46.7006666,144.621363 C48.7457328,136.167178 52.2988856,128.116079 57.9724129,121.460316 C61.2070569,117.6649 65.1759119,114.710147 69.1629555,111.763497 C72.6161975,109.211357 76.0826624,106.66482 78.9995351,103.47826 L80.3787914,101.965186 C80.6777763,101.636117 80.9759685,101.307454 81.2736592,100.979344 C86.3106517,95.4276453 91.2145536,90.0405508 97.3270646,85.4875161 C104.415913,80.2085647 112.238579,76.0766161 120.36696,72.6449726 C137.877894,65.2548707 156.724758,60.8237145 175.368992,57.3955618 C215.705038,49.9804253 257.111231,49.6145336 296.952736,60.0377029 C315.476362,64.8831627 333.453559,71.5156777 351.400075,78.1402659 C353.066365,78.7553425 354.732396,79.3703242 356.398649,79.9837805 C370.345308,85.1189692 384.299425,90.2322507 398.253681,95.3455836 C404.738788,97.7219564 411.223925,100.09834 417.708591,102.477024 C419.115532,102.993312 420.493005,104.105437 421.277506,105.487155 C422.042901,106.835222 422.27098,108.407355 421.652944,109.972849 C417.67406,120.054017 412.653683,129.512067 406.542734,138.344347 C408.666317,139.78884 410.473469,141.709703 411.840453,143.958053 C413.569392,146.801731 414.593626,150.168239 414.663221,153.739662 C414.896133,165.700777 404.01124,173.809073 394.980617,179.673461 C394.138889,180.220613 393.305596,180.543558 392.500438,180.691739 C401.250639,214.148976 409.62704,247.719489 416.744412,281.555976 L417.233941,283.901433 C424.565981,319.313448 429.29653,355.451715 422.362278,391.334034 C416.391844,422.232721 402.521082,452.053306 380.846725,475.071622 C359.605786,497.631041 331.103479,511.833003 300.264824,514.999146 Z M110.495272,311.28776 C106.721581,299.312294 104.721776,286.282453 106.165636,274.143073 C107.074449,266.512354 109.368685,259.166257 113.104197,252.440473 C115.243764,248.588427 117.851354,245.022366 120.69718,241.663675 L121.678846,240.535639 C122.175837,239.959477 122.670183,239.429924 122.82338,238.766118 C122.912408,238.380358 122.821778,237.958487 122.587325,237.45442 C122.067809,236.338039 121.10233,235.262104 120.198494,234.211885 C119.624057,233.544414 119.063002,232.889328 118.591947,232.251975 C110.321236,221.056257 104.15332,207.727369 106.158244,193.529975 C108.114088,179.678315 117.192141,166.766674 126.856573,157.036217 C148.137108,135.610063 181.12966,130.686468 210.032243,131.868267 C226.857112,132.555657 243.654604,135.520901 259.676942,140.700615 C267.577825,143.255415 275.303028,146.366669 282.810225,149.932632 L284.472443,150.730696 C285.369437,151.165279 286.265532,151.604706 287.162239,152.044441 C293.030279,154.922063 298.920529,157.827792 305.290532,159.392298 C317.7305,162.446932 326.169144,156.013295 335.038795,149.52496 C338.078547,147.301317 341.164746,145.046915 344.445108,143.068497 L345.120241,142.669308 C351.038071,139.238766 358.116293,136.930205 364.915916,137.033742 C370.822209,137.123676 376.520654,139.009529 381.160007,143.466116 C382.1121,144.381832 382.660347,145.380833 382.917621,146.375085 C383.430885,147.094693 383.845256,147.952801 384.115145,148.966558 C385.777036,155.202318 387.431476,161.44255 389.080394,167.68468 L390.428698,166.815888 C394.422641,164.221741 398.764985,161.257116 400.725993,156.91713 C401.480708,155.2467 401.373813,152.46377 400.42261,150.417698 C400.090255,149.702791 399.650689,149.067164 399.043177,148.67041 C398.601185,148.381755 398.068421,148.246268 397.449338,148.296131 C395.944092,148.489931 394.56209,148.269767 393.390083,147.774461 C392.038644,147.203324 390.960812,146.263446 390.261458,145.130839 C389.545364,143.971121 389.218989,142.607599 389.394026,141.193532 C389.544525,139.977703 390.06775,138.707988 391.102916,137.514938 C397.916727,129.661265 403.654861,120.997901 408.015743,111.594362 L379.169174,100.921825 C368.883848,97.1183844 358.596773,93.3198176 348.304805,89.5358807 L342.670222,87.4654882 C323.955855,80.6013392 305.1338,73.8931981 285.671765,69.4739581 C246.994127,60.6920694 206.661712,62.7560598 168.091043,71.0224764 L165.761031,71.5259817 C149.575629,75.055235 133.1726,79.3253389 118.316452,86.7477419 C111.024514,90.3907808 104.093101,94.8207334 98.1406049,100.417682 C95.5118869,102.889305 93.1351621,105.595464 90.7576963,108.29795 C87.4258629,112.085275 84.090069,115.862411 80.1286906,119.052777 L76.4514661,121.997251 C70.9810797,126.405102 66.0470122,130.699703 62.9603442,137.535767 C59.7328273,144.682481 58.1923335,152.578029 56.9353671,160.270468 C53.7654597,179.648863 52.5142446,199.337569 52.6335625,218.966353 C52.8353879,251.92454 57.8426199,284.211358 64.168395,316.384422 C69.2436511,309.121098 76.3729934,303.490278 85.5234859,302.289587 C91.4891438,301.507065 97.4035979,302.619207 102.532186,305.257041 C105.49638,306.781642 108.197898,308.815777 110.495272,311.28776 L110.495272,311.28776 Z M100.908191,350.423334 C94.2261408,347.834587 87.2103416,346.986868 80.1408705,348.224739 C79.4002127,348.353738 78.6938582,348.199555 78.1001518,347.85459 C77.4982713,347.504876 77.0239213,346.951713 76.7663785,346.34094 C76.4686764,345.634927 76.4535045,344.870759 76.7162375,344.192009 C76.9441587,343.603193 77.3785316,343.031332 78.1773552,342.649383 C85.832348,338.99646 94.3407546,337.384398 102.785784,338.531399 L103.620401,338.649901 C107.937828,339.290226 114.008993,340.637776 118.561842,343.290329 C122.138795,345.374311 124.756906,348.247113 125.408189,352.000095 C125.747891,353.955595 125.262438,355.99726 124.135166,357.477244 C123.045354,358.908048 121.379373,359.861881 119.222821,359.800591 C115.418918,359.692366 113.166654,358.08482 110.456849,356.002742 C110.128101,355.750148 109.790992,355.491067 109.440555,355.228789 C106.822136,353.269712 103.960926,351.605772 100.908191,350.423334 Z" id="Ink" fill="#000"/></g></g><g id="Beard" transform="translate(527.000000, 518.000000) scale(1 1)" fill="#000"><g id="Beard/Senior Mustache" stroke="none" stroke-width="1" fill="none" fill-rule="evenodd"><path d="M245.365277,32.8226847 C231.338969,30.4572303 216.766641,33.9532014 203.242791,37.6782594 C181.759624,23.5729056 153.92278,37.8103838 138.536995,55.4330191 C133.271305,59.7696855 122.213152,65.5298866 128.039044,73.8036493 C125.830655,79.6522886 125.240063,82.4045268 129.81082,75.5670849 C155.679361,78.5452133 183.43415,72.9192677 209.035253,67.6129782 C217.752312,70.5442237 225.450269,77.3976483 235.032448,75.0503077 C244.092921,76.9767679 253.901005,78.7753656 262.080148,72.9629541 C268.30821,72.7104258 282.164331,83.8941237 281.941466,70.8883866 C280.014697,58.4218027 255.296689,37.6782594 245.365277,32.8226847 Z" id="Background" fill="#E8E1E1"/><path d="M255.8834,72.8453 C240.6554,74.5303 225.2124,72.0543 212.4614,63.2123 C211.1304,62.2893 209.8184,62.2993 208.7484,62.8403 C207.4474,62.6963 206.1164,63.2153 205.3444,64.7013 C202.1424,70.8683 191.5294,69.4943 185.6954,69.6203 C166.6124,69.9883 146.8634,68.9353 128.4984,74.7043 C146.0624,40.3703 170.3534,25.5483 207.9404,39.0273 C204.5464,41.7603 221.4824,35.3623 222.9684,35.2403 C248.9744,28.7243 270.4294,50.5363 280.9104,72.1503 C272.9814,70.2633 264.0964,71.9363 255.8834,72.8453 M292.2074,78.6883 C280.7404,52.8593 258.1304,24.4593 226.5934,28.9233 C220.1184,29.8763 213.3074,34.2993 206.7884,33.5013 C187.9134,26.5303 172.3334,22.9883 153.4304,34.2603 C145.4104,34.8593 100.2784,90.7363 121.7254,86.1743 C148.0514,71.0563 193.8254,85.2963 210.1734,71.7743 C242.2684,92.8433 268.3644,69.9563 286.4524,83.1263 C289.5974,86.0113 294.0084,82.4183 292.2074,78.6883" id="Ink" fill="#000"/></g></g><g id="Face" transform="translate(563.000000, 366.000000) scale(1 1)" fill="#000"><g id="Face/Cheeky" stroke="none" stroke-width="1" fill="none" fill-rule="evenodd"><path d="M166.9438,221.352 C168.4778,218.685 172.0098,216.214 175.2418,216.593 C189.7208,218.291 189.6958,235.845 184.1048,246.093 C179.1478,255.18 168.8888,260.514 158.6208,259.735 C147.8338,258.916 138.6428,252.574 134.5978,242.483 C131.9228,235.808 130.6868,223.485 137.8028,219 C137.9348,218.916 138.1528,218.937 138.2578,219.058 C141.6698,223.027 141.8038,228.986 144.7908,233.405 C147.5688,237.515 151.8848,240.909 156.9408,241.433 C160.7168,241.825 164.5368,240.463 166.0138,237.073 C166.812891,235.239364 166.721899,234.243744 166.421516,232.981708 L166.148563,231.885055 C165.202801,228.043565 164.778057,225.118714 166.9438,221.352 Z M170.814304,144.367155 C178.365682,148.9572 189.871664,159.660291 181.748119,171.039573 C172.185929,181.073062 158.418535,169.568982 151.634201,164.366134 C145.343449,160.333898 138.275437,170.704507 144.112,175.412823 C193.135736,211.708059 213.030606,145.567387 174.633685,138.970386 C170.406047,138.243425 168.835891,142.947174 170.814304,144.367155 Z M91.0715,112.8926 C95.7065,105.9386 106.2865,106.9626 108.8395,115.2146 C110.2225,119.6846 108.3125,123.7026 108.4115,128.1666 C108.4945,131.9376 108.2475,136.1396 107.0915,139.7916 C104.4555,148.1196 96.9655,154.0016 88.1045,153.7576 C79.2725,153.5146 71.4935,147.9246 67.7945,140.0516 C64.0825,132.1486 64.8685,123.9696 67.5785,115.9336 C67.7085,115.5476 68.2145,115.3606 68.5195,115.6856 C71.7228333,119.089767 74.0678333,122.683517 76.4943148,126.495785 L78.9809333,130.40279 C80.8812656,133.344819 83.6431037,137.103142 87.1914615,136.867072 L87.7238987,136.814547 C88.7099852,136.729908 88.5588846,136.9256 89.3195,135.5816 C89.6715,134.9596 89.6075,133.8036 89.7775,133.0696 L89.8365,132.8216 L89.8365,132.8216 L89.8043384,132.68798 C89.7292832,132.332503 89.6547866,131.66266 89.5942529,130.500284 L89.5815,130.2436 C89.3245,124.8066 87.7875,117.8196 91.0715,112.8926 Z M208.5632,117.5221 C207.7322,108.6281 220.2362,106.6531 224.3932,113.2341 C226.561303,116.665997 227.192546,120.977055 227.67203,125.0615 L227.8962,127.0001 C228.3882,131.1951 228.5832,135.5591 226.7622,139.4721 C223.8942,145.6351 217.6572,148.8931 210.9292,148.3771 C204.5042,147.8831 198.6422,144.1581 195.5522,138.5031 C192.7972,133.4571 190.0582,123.6051 193.4042,118.3421 C193.6062,118.0231 194.0102,117.9821 194.2872,118.2281 C197.4492,121.0351 197.9642,126.1551 199.8442,129.8121 C201.7832,133.5841 204.7242,137.2601 209.1812,137.8331 C213.4452,138.3811 215.0742,136.0521 213.9862,131.9871 C212.5832,126.7391 209.0912,123.1691 208.5632,117.5221 Z M94.4489,60.0159 L96.4937284,59.2327124 C103.499922,56.5860716 113.118768,53.5268605 118.8149,59.2239 C122.3289,62.7369 122.9979,67.9119 120.4899,72.1989 C117.4509,77.3919 111.9999,77.5199 106.7359,78.2849 C100.7489,79.1549 94.6599,80.8089 89.0859,83.1669 C82.8069,85.8239 76.9799,89.1359 71.2709,92.8349 C65.8449,96.3499 60.4379,102.0949 53.9429,103.1779 C53.6779,103.2219 53.3769,103.1079 53.3079,102.8169 C51.8329,96.4669 55.9319,90.2179 59.5899,85.2639 C64.0159,79.2659 69.3789,74.3429 75.3729,69.9289 C81.1579,65.6679 87.7679,62.5889 94.4489,60.0159 Z M221.7162,82.5925 L222.340762,82.4830541 C226.589355,81.7757704 230.439386,81.9386395 233.6412,85.3035 C236.0852,87.8705 237.0272,91.1975 235.8622,94.5915 C234.7872,97.7225 232.3832,100.9035 228.8942,101.5595 C217.1152,103.7755 204.0682,103.4095 192.2302,101.7315 C186.814067,100.963367 181.349151,100.023624 176.073673,98.5415284 L173.646557,97.8379125 C169.242357,96.5798884 164.200291,95.2655909 161.0012,92.0265 C159.8512,90.8625 160.5142,89.1965 161.8902,88.6575 C167.4722,86.4715 175.1232,87.6345 181.0752,87.4635 C187.9992,87.2655 194.9342,86.7465 201.8252,86.0315 C208.5592,85.3315 215.0752,83.8105 221.7162,82.5925 Z" id="Ink" fill="#000"/></g></g><g id="Mask" transform="translate(428.000000, 479.000000) scale(1 1)" fill="#000"><g id="Mask/None" stroke="none" stroke-width="1" fill="none" fill-rule="evenodd" fill-opacity="0"/></g><g id="Accessories" transform="translate(451.000000, 421.000000) scale(1 1)" fill="#000"><g id="Accessories/Glasses 3" stroke="none" stroke-width="1" fill="none" fill-rule="evenodd"><path d="M367.1336,98.3183 C360.4006,107.3633 347.9186,110.2443 336.4056,109.2493 C311.5746,106.8593 303.7596,78.6583 302.9456,56.7393 C319.5966,61.4233 301.5376,28.2493 358.4566,24.6013 C378.5216,22.9293 372.9896,35.0473 381.8546,43.9013 C381.6726,62.4833 378.5796,82.6743 367.1336,98.3183 M248.8626,76.9663 C234.2026,145.6193 153.9246,129.2893 145.4916,67.4033 C153.2786,61.9073 151.2276,48.3363 160.9016,43.4193 C176.2336,33.6233 195.3996,34.0423 212.8106,34.2723 C235.0656,35.8013 241.4076,45.0203 252.8396,55.0783 C252.2896,61.7963 250.7036,69.7583 248.8626,76.9663 M398.9346,13.2313 C398.1116,13.0943 397.2876,12.9653 396.4636,12.8443 C395.8206,12.4793 395.0656,12.1983 394.1876,12.0293 C392.1826,11.5203 390.1916,11.1773 388.2036,10.9923 C359.6716,4.5713 293.6646,13.6883 290.9406,38.0363 C281.8546,41.0693 273.9926,38.3533 263.4616,38.6233 C255.4456,5.1183 116.8626,9.8473 110.1976,30.0473 C110.1726,30.0403 110.1476,30.0343 110.1216,30.0263 C103.7176,28.0443 94.2766,28.5223 86.9466,28.2083 C71.2956,27.8803 55.6266,29.2753 40.3136,32.5763 C11.6386,37.1333 -27.4964,42.4683 -7.5534,78.2763 C-7.5494,78.2823 -7.5464,78.2893 -7.5414,78.2953 L-7.5384,78.2923 C-4.1014,81.8153 1.7316,78.9783 1.9486,74.2093 C-4.7564,57.2453 10.3876,55.2083 22.0396,50.3333 C51.0326,39.9173 80.5506,38.4733 110.5366,41.6953 C112.7926,44.3513 116.2156,46.6673 119.8336,47.8793 C139.8826,51.2073 129.3166,66.0793 141.9896,68.2423 C139.6616,120.0843 202.6026,148.3823 239.0716,114.3033 C253.6326,100.0673 257.1036,78.9783 260.4796,59.9693 C262.2646,59.5683 263.3996,58.5923 264.0626,57.3003 C268.3556,53.0143 271.0526,49.0563 279.5416,47.8793 C288.0306,46.7033 294.5656,49.0643 295.4496,49.7873 C295.6726,50.2363 295.9116,50.6863 296.1896,51.1363 C296.5776,51.8073 297.1056,52.3423 297.7056,52.7633 C289.3226,104.3873 329.3996,137.0353 369.8586,110.2603 C387.4386,93.7233 391.1536,68.4053 391.8876,45.8073 C394.2706,44.3693 395.7796,41.5823 394.9546,38.0783 C393.8176,33.2483 396.4836,29.0663 400.7296,26.9663 C406.2466,24.2393 405.2706,14.2803 398.9346,13.2313" id="Ink" fill="#000"/></g></g></g></svg>